G04 #@! TF.GenerationSoftware,KiCad,Pcbnew,(5.0.0)*
G04 #@! TF.CreationDate,2018-08-15T19:41:19+08:00*
G04 #@! TF.ProjectId,Reflow,5265666C6F772E6B696361645F706362,rev?*
G04 #@! TF.SameCoordinates,PX69db1f0PY7882d48*
G04 #@! TF.FileFunction,Soldermask,Bot*
G04 #@! TF.FilePolarity,Negative*
%FSLAX46Y46*%
G04 Gerber Fmt 4.6, Leading zero omitted, Abs format (unit mm)*
G04 Created by KiCad (PCBNEW (5.0.0)) date 08/15/18 19:41:19*
%MOMM*%
%LPD*%
G01*
G04 APERTURE LIST*
%ADD10C,1.600000*%
%ADD11C,2.400000*%
%ADD12R,2.400000X2.400000*%
%ADD13O,1.727200X2.032000*%
%ADD14C,4.064000*%
G04 APERTURE END LIST*
D10*
G04 #@! TO.C,C10*
X48895000Y11985000D03*
X48895000Y6985000D03*
G04 #@! TD*
G04 #@! TO.C,C11*
X54610000Y6985000D03*
X54610000Y11985000D03*
G04 #@! TD*
D11*
G04 #@! TO.C,J1*
X6350000Y18090000D03*
D12*
X6350000Y21590000D03*
G04 #@! TD*
G04 #@! TO.C,J2*
X6350000Y43180000D03*
D11*
X6350000Y39680000D03*
G04 #@! TD*
G04 #@! TO.C,J3*
X6350000Y28885000D03*
D12*
X6350000Y32385000D03*
G04 #@! TD*
G04 #@! TO.C,J4*
X6350000Y10795000D03*
D11*
X6350000Y7295000D03*
G04 #@! TD*
G04 #@! TO.C,J5*
X62865000Y28265000D03*
D12*
X62865000Y24765000D03*
G04 #@! TD*
G04 #@! TO.C,J6*
X62865000Y14605000D03*
D11*
X62865000Y18105000D03*
G04 #@! TD*
D13*
G04 #@! TO.C,P1*
X27940000Y2540000D03*
X30480000Y2540000D03*
X33020000Y2540000D03*
X35560000Y2540000D03*
X38100000Y2540000D03*
X40640000Y2540000D03*
X43180000Y2540000D03*
X45720000Y2540000D03*
G04 #@! TD*
G04 #@! TO.C,P2*
X50800000Y2540000D03*
X53340000Y2540000D03*
X55880000Y2540000D03*
X58420000Y2540000D03*
X60960000Y2540000D03*
X63500000Y2540000D03*
G04 #@! TD*
G04 #@! TO.C,P3*
X18796000Y50800000D03*
X21336000Y50800000D03*
X23876000Y50800000D03*
X26416000Y50800000D03*
X28956000Y50800000D03*
X31496000Y50800000D03*
X34036000Y50800000D03*
X36576000Y50800000D03*
X39116000Y50800000D03*
X41656000Y50800000D03*
G04 #@! TD*
G04 #@! TO.C,P4*
X45720000Y50800000D03*
X48260000Y50800000D03*
X50800000Y50800000D03*
X53340000Y50800000D03*
X55880000Y50800000D03*
X58420000Y50800000D03*
X60960000Y50800000D03*
X63500000Y50800000D03*
G04 #@! TD*
D14*
G04 #@! TO.C,P5*
X13970000Y2540000D03*
G04 #@! TD*
G04 #@! TO.C,P6*
X66040000Y7620000D03*
G04 #@! TD*
G04 #@! TO.C,P7*
X15240000Y50800000D03*
G04 #@! TD*
G04 #@! TO.C,P8*
X66040000Y35560000D03*
G04 #@! TD*
M02*
