M48
;DRILL file {KiCad (5.0.0)} date 08/15/18 19:41:23
;FORMAT={-:-/ absolute / inch / decimal}
FMAT,2
INCH,TZ
T1C0.0157
T2C0.0315
T3C0.0400
T4C0.0472
T5C0.1200
%
G90
G05
M72
T1
X1.46Y1.14
X1.575Y0.9
X1.625Y1.3
X1.775Y1.1
T2
X1.925Y0.4719
X1.925Y0.275
X2.15Y0.4719
X2.15Y0.275
T3
X1.8Y2.
X1.9Y2.
X2.Y2.
X2.1Y2.
X2.2Y2.
X2.3Y2.
X2.4Y2.
X2.5Y2.
X0.74Y2.
X0.84Y2.
X0.94Y2.
X1.04Y2.
X1.14Y2.
X1.24Y2.
X1.34Y2.
X1.44Y2.
X1.54Y2.
X1.64Y2.
X2.Y0.1
X2.1Y0.1
X2.2Y0.1
X2.3Y0.1
X2.4Y0.1
X2.5Y0.1
X1.1Y0.1
X1.2Y0.1
X1.3Y0.1
X1.4Y0.1
X1.5Y0.1
X1.6Y0.1
X1.7Y0.1
X1.8Y0.1
T4
X0.25Y0.425
X0.25Y0.2872
X2.475Y0.7128
X2.475Y0.575
X2.475Y1.1128
X2.475Y0.975
X0.25Y1.7
X0.25Y1.5622
X0.25Y0.85
X0.25Y0.7122
X0.25Y1.275
X0.25Y1.1372
T5
X2.6Y1.4
X0.6Y2.
X0.55Y0.1
X2.6Y0.3
T0
M30
