G04 #@! TF.GenerationSoftware,KiCad,Pcbnew,(5.0.0)*
G04 #@! TF.CreationDate,2018-08-15T19:41:19+08:00*
G04 #@! TF.ProjectId,Reflow,5265666C6F772E6B696361645F706362,rev?*
G04 #@! TF.SameCoordinates,PX69db1f0PY7882d48*
G04 #@! TF.FileFunction,Copper,L2,Bot,Signal*
G04 #@! TF.FilePolarity,Positive*
%FSLAX46Y46*%
G04 Gerber Fmt 4.6, Leading zero omitted, Abs format (unit mm)*
G04 Created by KiCad (PCBNEW (5.0.0)) date 08/15/18 19:41:19*
%MOMM*%
%LPD*%
G01*
G04 APERTURE LIST*
G04 #@! TA.AperFunction,ComponentPad*
%ADD10C,1.600000*%
G04 #@! TD*
G04 #@! TA.AperFunction,ComponentPad*
%ADD11C,2.400000*%
G04 #@! TD*
G04 #@! TA.AperFunction,ComponentPad*
%ADD12R,2.400000X2.400000*%
G04 #@! TD*
G04 #@! TA.AperFunction,ComponentPad*
%ADD13O,1.727200X2.032000*%
G04 #@! TD*
G04 #@! TA.AperFunction,ComponentPad*
%ADD14C,4.064000*%
G04 #@! TD*
G04 #@! TA.AperFunction,ViaPad*
%ADD15C,0.600000*%
G04 #@! TD*
G04 #@! TA.AperFunction,Conductor*
%ADD16C,0.508000*%
G04 #@! TD*
G04 #@! TA.AperFunction,Conductor*
%ADD17C,0.254000*%
G04 #@! TD*
G04 APERTURE END LIST*
D10*
G04 #@! TO.P,C10,2*
G04 #@! TO.N,GND*
X48895000Y11985000D03*
G04 #@! TO.P,C10,1*
G04 #@! TO.N,A1*
X48895000Y6985000D03*
G04 #@! TD*
G04 #@! TO.P,C11,1*
G04 #@! TO.N,A2*
X54610000Y6985000D03*
G04 #@! TO.P,C11,2*
G04 #@! TO.N,GND*
X54610000Y11985000D03*
G04 #@! TD*
D11*
G04 #@! TO.P,J1,2*
G04 #@! TO.N,Net-(J1-Pad2)*
X6350000Y18090000D03*
D12*
G04 #@! TO.P,J1,1*
G04 #@! TO.N,Net-(J1-Pad1)*
X6350000Y21590000D03*
G04 #@! TD*
G04 #@! TO.P,J2,1*
G04 #@! TO.N,Net-(J2-Pad1)*
X6350000Y43180000D03*
D11*
G04 #@! TO.P,J2,2*
G04 #@! TO.N,Net-(J2-Pad2)*
X6350000Y39680000D03*
G04 #@! TD*
G04 #@! TO.P,J3,2*
G04 #@! TO.N,GND*
X6350000Y28885000D03*
D12*
G04 #@! TO.P,J3,1*
G04 #@! TO.N,D3*
X6350000Y32385000D03*
G04 #@! TD*
G04 #@! TO.P,J4,1*
G04 #@! TO.N,D2*
X6350000Y10795000D03*
D11*
G04 #@! TO.P,J4,2*
G04 #@! TO.N,GND*
X6350000Y7295000D03*
G04 #@! TD*
G04 #@! TO.P,J5,2*
G04 #@! TO.N,GND*
X62865000Y28265000D03*
D12*
G04 #@! TO.P,J5,1*
G04 #@! TO.N,A3*
X62865000Y24765000D03*
G04 #@! TD*
G04 #@! TO.P,J6,1*
G04 #@! TO.N,A4*
X62865000Y14605000D03*
D11*
G04 #@! TO.P,J6,2*
G04 #@! TO.N,GND*
X62865000Y18105000D03*
G04 #@! TD*
D13*
G04 #@! TO.P,P1,1*
G04 #@! TO.N,Net-(P1-Pad1)*
X27940000Y2540000D03*
G04 #@! TO.P,P1,2*
G04 #@! TO.N,/IOREF*
X30480000Y2540000D03*
G04 #@! TO.P,P1,3*
G04 #@! TO.N,/Reset*
X33020000Y2540000D03*
G04 #@! TO.P,P1,4*
G04 #@! TO.N,+3V3*
X35560000Y2540000D03*
G04 #@! TO.P,P1,5*
G04 #@! TO.N,+5V*
X38100000Y2540000D03*
G04 #@! TO.P,P1,6*
G04 #@! TO.N,GND*
X40640000Y2540000D03*
G04 #@! TO.P,P1,7*
X43180000Y2540000D03*
G04 #@! TO.P,P1,8*
G04 #@! TO.N,/Vin*
X45720000Y2540000D03*
G04 #@! TD*
G04 #@! TO.P,P2,1*
G04 #@! TO.N,/A0*
X50800000Y2540000D03*
G04 #@! TO.P,P2,2*
G04 #@! TO.N,A1*
X53340000Y2540000D03*
G04 #@! TO.P,P2,3*
G04 #@! TO.N,A2*
X55880000Y2540000D03*
G04 #@! TO.P,P2,4*
G04 #@! TO.N,A3*
X58420000Y2540000D03*
G04 #@! TO.P,P2,5*
G04 #@! TO.N,A4*
X60960000Y2540000D03*
G04 #@! TO.P,P2,6*
G04 #@! TO.N,Net-(P2-Pad6)*
X63500000Y2540000D03*
G04 #@! TD*
G04 #@! TO.P,P3,1*
G04 #@! TO.N,/A5(SCL)*
X18796000Y50800000D03*
G04 #@! TO.P,P3,2*
G04 #@! TO.N,/A4(SDA)*
X21336000Y50800000D03*
G04 #@! TO.P,P3,3*
G04 #@! TO.N,/AREF*
X23876000Y50800000D03*
G04 #@! TO.P,P3,4*
G04 #@! TO.N,GND*
X26416000Y50800000D03*
G04 #@! TO.P,P3,5*
G04 #@! TO.N,/13(SCK)*
X28956000Y50800000D03*
G04 #@! TO.P,P3,6*
G04 #@! TO.N,/12(MISO)*
X31496000Y50800000D03*
G04 #@! TO.P,P3,7*
G04 #@! TO.N,/11(\002A\002A/MOSI)*
X34036000Y50800000D03*
G04 #@! TO.P,P3,8*
G04 #@! TO.N,/10(\002A\002A/SS)*
X36576000Y50800000D03*
G04 #@! TO.P,P3,9*
G04 #@! TO.N,/9(\002A\002A)*
X39116000Y50800000D03*
G04 #@! TO.P,P3,10*
G04 #@! TO.N,/8*
X41656000Y50800000D03*
G04 #@! TD*
G04 #@! TO.P,P4,1*
G04 #@! TO.N,/7*
X45720000Y50800000D03*
G04 #@! TO.P,P4,2*
G04 #@! TO.N,/6(\002A\002A)*
X48260000Y50800000D03*
G04 #@! TO.P,P4,3*
G04 #@! TO.N,/5(\002A\002A)*
X50800000Y50800000D03*
G04 #@! TO.P,P4,4*
G04 #@! TO.N,/4*
X53340000Y50800000D03*
G04 #@! TO.P,P4,5*
G04 #@! TO.N,D3*
X55880000Y50800000D03*
G04 #@! TO.P,P4,6*
G04 #@! TO.N,D2*
X58420000Y50800000D03*
G04 #@! TO.P,P4,7*
G04 #@! TO.N,/1(Tx)*
X60960000Y50800000D03*
G04 #@! TO.P,P4,8*
G04 #@! TO.N,/0(Rx)*
X63500000Y50800000D03*
G04 #@! TD*
D14*
G04 #@! TO.P,P5,1*
G04 #@! TO.N,Net-(P5-Pad1)*
X13970000Y2540000D03*
G04 #@! TD*
G04 #@! TO.P,P6,1*
G04 #@! TO.N,Net-(P6-Pad1)*
X66040000Y7620000D03*
G04 #@! TD*
G04 #@! TO.P,P7,1*
G04 #@! TO.N,Net-(P7-Pad1)*
X15240000Y50800000D03*
G04 #@! TD*
G04 #@! TO.P,P8,1*
G04 #@! TO.N,Net-(P8-Pad1)*
X66040000Y35560000D03*
G04 #@! TD*
D15*
G04 #@! TO.N,D3*
X41275000Y33020000D03*
X37084000Y28956000D03*
G04 #@! TO.N,D2*
X40005000Y22860000D03*
X45085000Y27940000D03*
G04 #@! TD*
D16*
G04 #@! TO.N,D3*
X37211000Y28956000D02*
X37084000Y28956000D01*
X41275000Y33020000D02*
X37211000Y28956000D01*
G04 #@! TO.N,D2*
X40005000Y22860000D02*
X45085000Y27940000D01*
G04 #@! TD*
D17*
G04 #@! TO.N,GND*
G36*
X12979026Y52310734D02*
X12573000Y51330499D01*
X12573000Y50269501D01*
X12979026Y49289266D01*
X13729266Y48539026D01*
X14709501Y48133000D01*
X15770499Y48133000D01*
X16750734Y48539026D01*
X17500974Y49289266D01*
X17654156Y49659082D01*
X17715570Y49567170D01*
X18211276Y49235950D01*
X18796000Y49119641D01*
X19380725Y49235950D01*
X19876430Y49567170D01*
X20066000Y49850881D01*
X20255570Y49567170D01*
X20751276Y49235950D01*
X21336000Y49119641D01*
X21920725Y49235950D01*
X22416430Y49567170D01*
X22606000Y49850881D01*
X22795570Y49567170D01*
X23291276Y49235950D01*
X23876000Y49119641D01*
X24460725Y49235950D01*
X24956430Y49567170D01*
X25149909Y49856733D01*
X25513964Y49449268D01*
X26041209Y49195291D01*
X26056974Y49192642D01*
X26289000Y49313783D01*
X26289000Y50673000D01*
X26269000Y50673000D01*
X26269000Y50927000D01*
X26289000Y50927000D01*
X26289000Y52286217D01*
X26543000Y52286217D01*
X26543000Y50927000D01*
X26563000Y50927000D01*
X26563000Y50673000D01*
X26543000Y50673000D01*
X26543000Y49313783D01*
X26775026Y49192642D01*
X26790791Y49195291D01*
X27318036Y49449268D01*
X27682090Y49856732D01*
X27875570Y49567170D01*
X28371276Y49235950D01*
X28956000Y49119641D01*
X29540725Y49235950D01*
X30036430Y49567170D01*
X30226000Y49850881D01*
X30415570Y49567170D01*
X30911276Y49235950D01*
X31496000Y49119641D01*
X32080725Y49235950D01*
X32576430Y49567170D01*
X32766000Y49850881D01*
X32955570Y49567170D01*
X33451276Y49235950D01*
X34036000Y49119641D01*
X34620725Y49235950D01*
X35116430Y49567170D01*
X35306000Y49850881D01*
X35495570Y49567170D01*
X35991276Y49235950D01*
X36576000Y49119641D01*
X37160725Y49235950D01*
X37656430Y49567170D01*
X37846000Y49850881D01*
X38035570Y49567170D01*
X38531276Y49235950D01*
X39116000Y49119641D01*
X39700725Y49235950D01*
X40196430Y49567170D01*
X40386000Y49850881D01*
X40575570Y49567170D01*
X41071276Y49235950D01*
X41656000Y49119641D01*
X42240725Y49235950D01*
X42736430Y49567170D01*
X43067650Y50062876D01*
X43154600Y50500003D01*
X43154600Y51099997D01*
X44221400Y51099997D01*
X44221400Y50500002D01*
X44308350Y50062875D01*
X44639570Y49567170D01*
X45135276Y49235950D01*
X45720000Y49119641D01*
X46304725Y49235950D01*
X46800430Y49567170D01*
X46990000Y49850881D01*
X47179570Y49567170D01*
X47675276Y49235950D01*
X48260000Y49119641D01*
X48844725Y49235950D01*
X49340430Y49567170D01*
X49530000Y49850881D01*
X49719570Y49567170D01*
X50215276Y49235950D01*
X50800000Y49119641D01*
X51384725Y49235950D01*
X51880430Y49567170D01*
X52070000Y49850881D01*
X52259570Y49567170D01*
X52755276Y49235950D01*
X53340000Y49119641D01*
X53924725Y49235950D01*
X54420430Y49567170D01*
X54610000Y49850881D01*
X54799570Y49567170D01*
X55295276Y49235950D01*
X55880000Y49119641D01*
X56464725Y49235950D01*
X56960430Y49567170D01*
X57150000Y49850881D01*
X57339570Y49567170D01*
X57835276Y49235950D01*
X58420000Y49119641D01*
X59004725Y49235950D01*
X59500430Y49567170D01*
X59690000Y49850881D01*
X59879570Y49567170D01*
X60375276Y49235950D01*
X60960000Y49119641D01*
X61544725Y49235950D01*
X62040430Y49567170D01*
X62230000Y49850881D01*
X62419570Y49567170D01*
X62915276Y49235950D01*
X63500000Y49119641D01*
X64084725Y49235950D01*
X64580430Y49567170D01*
X64911650Y50062876D01*
X64998600Y50500003D01*
X64998600Y51099998D01*
X64911650Y51537125D01*
X64580430Y52032830D01*
X64084724Y52364050D01*
X63500000Y52480359D01*
X62915275Y52364050D01*
X62419570Y52032830D01*
X62230000Y51749119D01*
X62040430Y52032830D01*
X61544724Y52364050D01*
X60960000Y52480359D01*
X60375275Y52364050D01*
X59879570Y52032830D01*
X59690000Y51749119D01*
X59500430Y52032830D01*
X59004724Y52364050D01*
X58420000Y52480359D01*
X57835275Y52364050D01*
X57339570Y52032830D01*
X57150000Y51749119D01*
X56960430Y52032830D01*
X56464724Y52364050D01*
X55880000Y52480359D01*
X55295275Y52364050D01*
X54799570Y52032830D01*
X54610000Y51749119D01*
X54420430Y52032830D01*
X53924724Y52364050D01*
X53340000Y52480359D01*
X52755275Y52364050D01*
X52259570Y52032830D01*
X52070000Y51749119D01*
X51880430Y52032830D01*
X51384724Y52364050D01*
X50800000Y52480359D01*
X50215275Y52364050D01*
X49719570Y52032830D01*
X49530000Y51749119D01*
X49340430Y52032830D01*
X48844724Y52364050D01*
X48260000Y52480359D01*
X47675275Y52364050D01*
X47179570Y52032830D01*
X46990000Y51749119D01*
X46800430Y52032830D01*
X46304724Y52364050D01*
X45720000Y52480359D01*
X45135275Y52364050D01*
X44639570Y52032830D01*
X44308350Y51537124D01*
X44221400Y51099997D01*
X43154600Y51099997D01*
X43154600Y51099998D01*
X43067650Y51537125D01*
X42736430Y52032830D01*
X42240724Y52364050D01*
X41656000Y52480359D01*
X41071275Y52364050D01*
X40575570Y52032830D01*
X40386000Y51749119D01*
X40196430Y52032830D01*
X39700724Y52364050D01*
X39116000Y52480359D01*
X38531275Y52364050D01*
X38035570Y52032830D01*
X37846000Y51749119D01*
X37656430Y52032830D01*
X37160724Y52364050D01*
X36576000Y52480359D01*
X35991275Y52364050D01*
X35495570Y52032830D01*
X35306000Y51749119D01*
X35116430Y52032830D01*
X34620724Y52364050D01*
X34036000Y52480359D01*
X33451275Y52364050D01*
X32955570Y52032830D01*
X32766000Y51749119D01*
X32576430Y52032830D01*
X32080724Y52364050D01*
X31496000Y52480359D01*
X30911275Y52364050D01*
X30415570Y52032830D01*
X30226000Y51749119D01*
X30036430Y52032830D01*
X29540724Y52364050D01*
X28956000Y52480359D01*
X28371275Y52364050D01*
X27875570Y52032830D01*
X27682091Y51743267D01*
X27318036Y52150732D01*
X26790791Y52404709D01*
X26775026Y52407358D01*
X26543000Y52286217D01*
X26289000Y52286217D01*
X26056974Y52407358D01*
X26041209Y52404709D01*
X25513964Y52150732D01*
X25149910Y51743268D01*
X24956430Y52032830D01*
X24460724Y52364050D01*
X23876000Y52480359D01*
X23291275Y52364050D01*
X22795570Y52032830D01*
X22606000Y51749119D01*
X22416430Y52032830D01*
X21920724Y52364050D01*
X21336000Y52480359D01*
X20751275Y52364050D01*
X20255570Y52032830D01*
X20066000Y51749119D01*
X19876430Y52032830D01*
X19380724Y52364050D01*
X18796000Y52480359D01*
X18211275Y52364050D01*
X17715570Y52032830D01*
X17654156Y51940918D01*
X17500974Y52310734D01*
X17181708Y52630000D01*
X64221910Y52630000D01*
X65330001Y51521908D01*
X65330000Y40455924D01*
X65316091Y40386000D01*
X65330000Y40316076D01*
X65330000Y40316075D01*
X65371195Y40108973D01*
X65528119Y39874120D01*
X65587402Y39834508D01*
X67870001Y37551908D01*
X67870001Y37501707D01*
X67550734Y37820974D01*
X66570499Y38227000D01*
X65509501Y38227000D01*
X64529266Y37820974D01*
X63779026Y37070734D01*
X63373000Y36090499D01*
X63373000Y35029501D01*
X63779026Y34049266D01*
X64529266Y33299026D01*
X65509501Y32893000D01*
X66570499Y32893000D01*
X67550734Y33299026D01*
X67870001Y33618293D01*
X67870000Y9561708D01*
X67550734Y9880974D01*
X66570499Y10287000D01*
X65509501Y10287000D01*
X64529266Y9880974D01*
X63779026Y9130734D01*
X63373000Y8150499D01*
X63373000Y7089501D01*
X63779026Y6109266D01*
X64529266Y5359026D01*
X65509501Y4953000D01*
X66570499Y4953000D01*
X67550734Y5359026D01*
X67870000Y5678292D01*
X67870000Y5374091D01*
X65587402Y3091492D01*
X65528120Y3051881D01*
X65386544Y2839998D01*
X65371196Y2817028D01*
X65316091Y2540000D01*
X65330001Y2470071D01*
X65330000Y710000D01*
X15911708Y710000D01*
X16230974Y1029266D01*
X16637000Y2009501D01*
X16637000Y2839997D01*
X26441400Y2839997D01*
X26441400Y2240002D01*
X26528350Y1802875D01*
X26859570Y1307170D01*
X27355276Y975950D01*
X27940000Y859641D01*
X28524725Y975950D01*
X29020430Y1307170D01*
X29210000Y1590881D01*
X29399570Y1307170D01*
X29895276Y975950D01*
X30480000Y859641D01*
X31064725Y975950D01*
X31560430Y1307170D01*
X31750000Y1590881D01*
X31939570Y1307170D01*
X32435276Y975950D01*
X33020000Y859641D01*
X33604725Y975950D01*
X34100430Y1307170D01*
X34290000Y1590881D01*
X34479570Y1307170D01*
X34975276Y975950D01*
X35560000Y859641D01*
X36144725Y975950D01*
X36640430Y1307170D01*
X36830000Y1590881D01*
X37019570Y1307170D01*
X37515276Y975950D01*
X38100000Y859641D01*
X38684725Y975950D01*
X39180430Y1307170D01*
X39373909Y1596733D01*
X39737964Y1189268D01*
X40265209Y935291D01*
X40280974Y932642D01*
X40513000Y1053783D01*
X40513000Y2413000D01*
X40767000Y2413000D01*
X40767000Y1053783D01*
X40999026Y932642D01*
X41014791Y935291D01*
X41542036Y1189268D01*
X41910000Y1601108D01*
X42277964Y1189268D01*
X42805209Y935291D01*
X42820974Y932642D01*
X43053000Y1053783D01*
X43053000Y2413000D01*
X40767000Y2413000D01*
X40513000Y2413000D01*
X40493000Y2413000D01*
X40493000Y2667000D01*
X40513000Y2667000D01*
X40513000Y4026217D01*
X40767000Y4026217D01*
X40767000Y2667000D01*
X43053000Y2667000D01*
X43053000Y4026217D01*
X43307000Y4026217D01*
X43307000Y2667000D01*
X43327000Y2667000D01*
X43327000Y2413000D01*
X43307000Y2413000D01*
X43307000Y1053783D01*
X43539026Y932642D01*
X43554791Y935291D01*
X44082036Y1189268D01*
X44446090Y1596732D01*
X44639570Y1307170D01*
X45135276Y975950D01*
X45720000Y859641D01*
X46304725Y975950D01*
X46800430Y1307170D01*
X47131650Y1802876D01*
X47218600Y2240003D01*
X47218600Y2839997D01*
X49301400Y2839997D01*
X49301400Y2240002D01*
X49388350Y1802875D01*
X49719570Y1307170D01*
X50215276Y975950D01*
X50800000Y859641D01*
X51384725Y975950D01*
X51880430Y1307170D01*
X52070000Y1590881D01*
X52259570Y1307170D01*
X52755276Y975950D01*
X53340000Y859641D01*
X53924725Y975950D01*
X54420430Y1307170D01*
X54610000Y1590881D01*
X54799570Y1307170D01*
X55295276Y975950D01*
X55880000Y859641D01*
X56464725Y975950D01*
X56960430Y1307170D01*
X57150000Y1590881D01*
X57339570Y1307170D01*
X57835276Y975950D01*
X58420000Y859641D01*
X59004725Y975950D01*
X59500430Y1307170D01*
X59690000Y1590881D01*
X59879570Y1307170D01*
X60375276Y975950D01*
X60960000Y859641D01*
X61544725Y975950D01*
X62040430Y1307170D01*
X62230000Y1590881D01*
X62419570Y1307170D01*
X62915276Y975950D01*
X63500000Y859641D01*
X64084725Y975950D01*
X64580430Y1307170D01*
X64911650Y1802876D01*
X64998600Y2240003D01*
X64998600Y2839998D01*
X64911650Y3277125D01*
X64580430Y3772830D01*
X64084724Y4104050D01*
X63500000Y4220359D01*
X62915275Y4104050D01*
X62419570Y3772830D01*
X62230000Y3489119D01*
X62040430Y3772830D01*
X61544724Y4104050D01*
X60960000Y4220359D01*
X60375275Y4104050D01*
X59879570Y3772830D01*
X59690000Y3489119D01*
X59500430Y3772830D01*
X59004724Y4104050D01*
X58420000Y4220359D01*
X57835275Y4104050D01*
X57339570Y3772830D01*
X57150000Y3489119D01*
X56960430Y3772830D01*
X56464724Y4104050D01*
X55880000Y4220359D01*
X55295275Y4104050D01*
X54799570Y3772830D01*
X54610000Y3489119D01*
X54420430Y3772830D01*
X53924724Y4104050D01*
X53340000Y4220359D01*
X52755275Y4104050D01*
X52259570Y3772830D01*
X52070000Y3489119D01*
X51880430Y3772830D01*
X51384724Y4104050D01*
X50800000Y4220359D01*
X50215275Y4104050D01*
X49719570Y3772830D01*
X49388350Y3277124D01*
X49301400Y2839997D01*
X47218600Y2839997D01*
X47218600Y2839998D01*
X47131650Y3277125D01*
X46800430Y3772830D01*
X46304724Y4104050D01*
X45720000Y4220359D01*
X45135275Y4104050D01*
X44639570Y3772830D01*
X44446091Y3483267D01*
X44082036Y3890732D01*
X43554791Y4144709D01*
X43539026Y4147358D01*
X43307000Y4026217D01*
X43053000Y4026217D01*
X42820974Y4147358D01*
X42805209Y4144709D01*
X42277964Y3890732D01*
X41910000Y3478892D01*
X41542036Y3890732D01*
X41014791Y4144709D01*
X40999026Y4147358D01*
X40767000Y4026217D01*
X40513000Y4026217D01*
X40280974Y4147358D01*
X40265209Y4144709D01*
X39737964Y3890732D01*
X39373910Y3483268D01*
X39180430Y3772830D01*
X38684724Y4104050D01*
X38100000Y4220359D01*
X37515275Y4104050D01*
X37019570Y3772830D01*
X36830000Y3489119D01*
X36640430Y3772830D01*
X36144724Y4104050D01*
X35560000Y4220359D01*
X34975275Y4104050D01*
X34479570Y3772830D01*
X34290000Y3489119D01*
X34100430Y3772830D01*
X33604724Y4104050D01*
X33020000Y4220359D01*
X32435275Y4104050D01*
X31939570Y3772830D01*
X31750000Y3489119D01*
X31560430Y3772830D01*
X31064724Y4104050D01*
X30480000Y4220359D01*
X29895275Y4104050D01*
X29399570Y3772830D01*
X29210000Y3489119D01*
X29020430Y3772830D01*
X28524724Y4104050D01*
X27940000Y4220359D01*
X27355275Y4104050D01*
X26859570Y3772830D01*
X26528350Y3277124D01*
X26441400Y2839997D01*
X16637000Y2839997D01*
X16637000Y3070499D01*
X16230974Y4050734D01*
X15480734Y4800974D01*
X14500499Y5207000D01*
X13439501Y5207000D01*
X12459266Y4800974D01*
X11709026Y4050734D01*
X11303000Y3070499D01*
X11303000Y2009501D01*
X11709026Y1029266D01*
X12028292Y710000D01*
X710000Y710000D01*
X710000Y5997825D01*
X5232430Y5997825D01*
X5355565Y5710212D01*
X6037734Y5450293D01*
X6767443Y5471214D01*
X7344435Y5710212D01*
X7467570Y5997825D01*
X6350000Y7115395D01*
X5232430Y5997825D01*
X710000Y5997825D01*
X710000Y7607266D01*
X4505293Y7607266D01*
X4526214Y6877557D01*
X4765212Y6300565D01*
X5052825Y6177430D01*
X6170395Y7295000D01*
X6529605Y7295000D01*
X7647175Y6177430D01*
X7934788Y6300565D01*
X8194707Y6982734D01*
X8186459Y7270439D01*
X47460000Y7270439D01*
X47460000Y6699561D01*
X47678466Y6172138D01*
X48082138Y5768466D01*
X48609561Y5550000D01*
X49180439Y5550000D01*
X49707862Y5768466D01*
X50111534Y6172138D01*
X50330000Y6699561D01*
X50330000Y7270439D01*
X53175000Y7270439D01*
X53175000Y6699561D01*
X53393466Y6172138D01*
X53797138Y5768466D01*
X54324561Y5550000D01*
X54895439Y5550000D01*
X55422862Y5768466D01*
X55826534Y6172138D01*
X56045000Y6699561D01*
X56045000Y7270439D01*
X55826534Y7797862D01*
X55422862Y8201534D01*
X54895439Y8420000D01*
X54324561Y8420000D01*
X53797138Y8201534D01*
X53393466Y7797862D01*
X53175000Y7270439D01*
X50330000Y7270439D01*
X50111534Y7797862D01*
X49707862Y8201534D01*
X49180439Y8420000D01*
X48609561Y8420000D01*
X48082138Y8201534D01*
X47678466Y7797862D01*
X47460000Y7270439D01*
X8186459Y7270439D01*
X8173786Y7712443D01*
X7934788Y8289435D01*
X7647175Y8412570D01*
X6529605Y7295000D01*
X6170395Y7295000D01*
X5052825Y8412570D01*
X4765212Y8289435D01*
X4505293Y7607266D01*
X710000Y7607266D01*
X710000Y11995000D01*
X4502560Y11995000D01*
X4502560Y9595000D01*
X4551843Y9347235D01*
X4692191Y9137191D01*
X4902235Y8996843D01*
X5150000Y8947560D01*
X5519181Y8947560D01*
X5355565Y8879788D01*
X5232430Y8592175D01*
X6350000Y7474605D01*
X7467570Y8592175D01*
X7344435Y8879788D01*
X7166564Y8947560D01*
X7550000Y8947560D01*
X7797765Y8996843D01*
X8007809Y9137191D01*
X8148157Y9347235D01*
X8197440Y9595000D01*
X8197440Y10977255D01*
X48066861Y10977255D01*
X48140995Y10731136D01*
X48678223Y10538035D01*
X49248454Y10565222D01*
X49649005Y10731136D01*
X49723139Y10977255D01*
X53781861Y10977255D01*
X53855995Y10731136D01*
X54393223Y10538035D01*
X54963454Y10565222D01*
X55364005Y10731136D01*
X55438139Y10977255D01*
X54610000Y11805395D01*
X53781861Y10977255D01*
X49723139Y10977255D01*
X48895000Y11805395D01*
X48066861Y10977255D01*
X8197440Y10977255D01*
X8197440Y11995000D01*
X8156310Y12201777D01*
X47448035Y12201777D01*
X47475222Y11631546D01*
X47641136Y11230995D01*
X47887255Y11156861D01*
X48715395Y11985000D01*
X49074605Y11985000D01*
X49902745Y11156861D01*
X50148864Y11230995D01*
X50341965Y11768223D01*
X50321295Y12201777D01*
X53163035Y12201777D01*
X53190222Y11631546D01*
X53356136Y11230995D01*
X53602255Y11156861D01*
X54430395Y11985000D01*
X54789605Y11985000D01*
X55617745Y11156861D01*
X55863864Y11230995D01*
X56056965Y11768223D01*
X56029778Y12338454D01*
X55863864Y12739005D01*
X55617745Y12813139D01*
X54789605Y11985000D01*
X54430395Y11985000D01*
X53602255Y12813139D01*
X53356136Y12739005D01*
X53163035Y12201777D01*
X50321295Y12201777D01*
X50314778Y12338454D01*
X50148864Y12739005D01*
X49902745Y12813139D01*
X49074605Y11985000D01*
X48715395Y11985000D01*
X47887255Y12813139D01*
X47641136Y12739005D01*
X47448035Y12201777D01*
X8156310Y12201777D01*
X8148157Y12242765D01*
X8007809Y12452809D01*
X7797765Y12593157D01*
X7550000Y12642440D01*
X5150000Y12642440D01*
X4902235Y12593157D01*
X4692191Y12452809D01*
X4551843Y12242765D01*
X4502560Y11995000D01*
X710000Y11995000D01*
X710000Y12992745D01*
X48066861Y12992745D01*
X48895000Y12164605D01*
X49723139Y12992745D01*
X53781861Y12992745D01*
X54610000Y12164605D01*
X55438139Y12992745D01*
X55364005Y13238864D01*
X54826777Y13431965D01*
X54256546Y13404778D01*
X53855995Y13238864D01*
X53781861Y12992745D01*
X49723139Y12992745D01*
X49649005Y13238864D01*
X49111777Y13431965D01*
X48541546Y13404778D01*
X48140995Y13238864D01*
X48066861Y12992745D01*
X710000Y12992745D01*
X710000Y15805000D01*
X61017560Y15805000D01*
X61017560Y13405000D01*
X61066843Y13157235D01*
X61207191Y12947191D01*
X61417235Y12806843D01*
X61665000Y12757560D01*
X64065000Y12757560D01*
X64312765Y12806843D01*
X64522809Y12947191D01*
X64663157Y13157235D01*
X64712440Y13405000D01*
X64712440Y15805000D01*
X64663157Y16052765D01*
X64522809Y16262809D01*
X64312765Y16403157D01*
X64065000Y16452440D01*
X63695819Y16452440D01*
X63859435Y16520212D01*
X63982570Y16807825D01*
X62865000Y17925395D01*
X61747430Y16807825D01*
X61870565Y16520212D01*
X62048436Y16452440D01*
X61665000Y16452440D01*
X61417235Y16403157D01*
X61207191Y16262809D01*
X61066843Y16052765D01*
X61017560Y15805000D01*
X710000Y15805000D01*
X710000Y22790000D01*
X4502560Y22790000D01*
X4502560Y20390000D01*
X4551843Y20142235D01*
X4692191Y19932191D01*
X4902235Y19791843D01*
X5150000Y19742560D01*
X5544547Y19742560D01*
X5310556Y19645638D01*
X4794362Y19129444D01*
X4515000Y18455004D01*
X4515000Y17724996D01*
X4794362Y17050556D01*
X5310556Y16534362D01*
X5984996Y16255000D01*
X6715004Y16255000D01*
X7389444Y16534362D01*
X7905638Y17050556D01*
X8185000Y17724996D01*
X8185000Y18417266D01*
X61020293Y18417266D01*
X61041214Y17687557D01*
X61280212Y17110565D01*
X61567825Y16987430D01*
X62685395Y18105000D01*
X63044605Y18105000D01*
X64162175Y16987430D01*
X64449788Y17110565D01*
X64709707Y17792734D01*
X64688786Y18522443D01*
X64449788Y19099435D01*
X64162175Y19222570D01*
X63044605Y18105000D01*
X62685395Y18105000D01*
X61567825Y19222570D01*
X61280212Y19099435D01*
X61020293Y18417266D01*
X8185000Y18417266D01*
X8185000Y18455004D01*
X7905638Y19129444D01*
X7632907Y19402175D01*
X61747430Y19402175D01*
X62865000Y18284605D01*
X63982570Y19402175D01*
X63859435Y19689788D01*
X63177266Y19949707D01*
X62447557Y19928786D01*
X61870565Y19689788D01*
X61747430Y19402175D01*
X7632907Y19402175D01*
X7389444Y19645638D01*
X7155453Y19742560D01*
X7550000Y19742560D01*
X7797765Y19791843D01*
X8007809Y19932191D01*
X8148157Y20142235D01*
X8197440Y20390000D01*
X8197440Y22790000D01*
X8148157Y23037765D01*
X8142666Y23045983D01*
X39070000Y23045983D01*
X39070000Y22674017D01*
X39212345Y22330365D01*
X39475365Y22067345D01*
X39819017Y21925000D01*
X40190983Y21925000D01*
X40534635Y22067345D01*
X40797655Y22330365D01*
X40843656Y22441421D01*
X44367235Y25965000D01*
X61017560Y25965000D01*
X61017560Y23565000D01*
X61066843Y23317235D01*
X61207191Y23107191D01*
X61417235Y22966843D01*
X61665000Y22917560D01*
X64065000Y22917560D01*
X64312765Y22966843D01*
X64522809Y23107191D01*
X64663157Y23317235D01*
X64712440Y23565000D01*
X64712440Y25965000D01*
X64663157Y26212765D01*
X64522809Y26422809D01*
X64312765Y26563157D01*
X64065000Y26612440D01*
X63695819Y26612440D01*
X63859435Y26680212D01*
X63982570Y26967825D01*
X62865000Y28085395D01*
X61747430Y26967825D01*
X61870565Y26680212D01*
X62048436Y26612440D01*
X61665000Y26612440D01*
X61417235Y26563157D01*
X61207191Y26422809D01*
X61066843Y26212765D01*
X61017560Y25965000D01*
X44367235Y25965000D01*
X45503581Y27101345D01*
X45614635Y27147345D01*
X45877655Y27410365D01*
X46020000Y27754017D01*
X46020000Y28125983D01*
X45877655Y28469635D01*
X45770024Y28577266D01*
X61020293Y28577266D01*
X61041214Y27847557D01*
X61280212Y27270565D01*
X61567825Y27147430D01*
X62685395Y28265000D01*
X63044605Y28265000D01*
X64162175Y27147430D01*
X64449788Y27270565D01*
X64709707Y27952734D01*
X64688786Y28682443D01*
X64449788Y29259435D01*
X64162175Y29382570D01*
X63044605Y28265000D01*
X62685395Y28265000D01*
X61567825Y29382570D01*
X61280212Y29259435D01*
X61020293Y28577266D01*
X45770024Y28577266D01*
X45614635Y28732655D01*
X45270983Y28875000D01*
X44899017Y28875000D01*
X44555365Y28732655D01*
X44292345Y28469635D01*
X44246345Y28358581D01*
X39586421Y23698656D01*
X39475365Y23652655D01*
X39212345Y23389635D01*
X39070000Y23045983D01*
X8142666Y23045983D01*
X8007809Y23247809D01*
X7797765Y23388157D01*
X7550000Y23437440D01*
X5150000Y23437440D01*
X4902235Y23388157D01*
X4692191Y23247809D01*
X4551843Y23037765D01*
X4502560Y22790000D01*
X710000Y22790000D01*
X710000Y27587825D01*
X5232430Y27587825D01*
X5355565Y27300212D01*
X6037734Y27040293D01*
X6767443Y27061214D01*
X7344435Y27300212D01*
X7467570Y27587825D01*
X6350000Y28705395D01*
X5232430Y27587825D01*
X710000Y27587825D01*
X710000Y29197266D01*
X4505293Y29197266D01*
X4526214Y28467557D01*
X4765212Y27890565D01*
X5052825Y27767430D01*
X6170395Y28885000D01*
X6529605Y28885000D01*
X7647175Y27767430D01*
X7934788Y27890565D01*
X8194707Y28572734D01*
X8178387Y29141983D01*
X36149000Y29141983D01*
X36149000Y28770017D01*
X36291345Y28426365D01*
X36554365Y28163345D01*
X36898017Y28021000D01*
X37269983Y28021000D01*
X37457241Y28098564D01*
X37557870Y28118581D01*
X37851933Y28315067D01*
X37901531Y28389296D01*
X39074410Y29562175D01*
X61747430Y29562175D01*
X62865000Y28444605D01*
X63982570Y29562175D01*
X63859435Y29849788D01*
X63177266Y30109707D01*
X62447557Y30088786D01*
X61870565Y29849788D01*
X61747430Y29562175D01*
X39074410Y29562175D01*
X41693581Y32181345D01*
X41804635Y32227345D01*
X42067655Y32490365D01*
X42210000Y32834017D01*
X42210000Y33205983D01*
X42067655Y33549635D01*
X41804635Y33812655D01*
X41460983Y33955000D01*
X41089017Y33955000D01*
X40745365Y33812655D01*
X40482345Y33549635D01*
X40436345Y33438581D01*
X36882223Y29884458D01*
X36554365Y29748655D01*
X36291345Y29485635D01*
X36149000Y29141983D01*
X8178387Y29141983D01*
X8173786Y29302443D01*
X7934788Y29879435D01*
X7647175Y30002570D01*
X6529605Y28885000D01*
X6170395Y28885000D01*
X5052825Y30002570D01*
X4765212Y29879435D01*
X4505293Y29197266D01*
X710000Y29197266D01*
X710000Y33585000D01*
X4502560Y33585000D01*
X4502560Y31185000D01*
X4551843Y30937235D01*
X4692191Y30727191D01*
X4902235Y30586843D01*
X5150000Y30537560D01*
X5519181Y30537560D01*
X5355565Y30469788D01*
X5232430Y30182175D01*
X6350000Y29064605D01*
X7467570Y30182175D01*
X7344435Y30469788D01*
X7166564Y30537560D01*
X7550000Y30537560D01*
X7797765Y30586843D01*
X8007809Y30727191D01*
X8148157Y30937235D01*
X8197440Y31185000D01*
X8197440Y33585000D01*
X8148157Y33832765D01*
X8007809Y34042809D01*
X7797765Y34183157D01*
X7550000Y34232440D01*
X5150000Y34232440D01*
X4902235Y34183157D01*
X4692191Y34042809D01*
X4551843Y33832765D01*
X4502560Y33585000D01*
X710000Y33585000D01*
X710000Y44380000D01*
X4502560Y44380000D01*
X4502560Y41980000D01*
X4551843Y41732235D01*
X4692191Y41522191D01*
X4902235Y41381843D01*
X5150000Y41332560D01*
X5544547Y41332560D01*
X5310556Y41235638D01*
X4794362Y40719444D01*
X4515000Y40045004D01*
X4515000Y39314996D01*
X4794362Y38640556D01*
X5310556Y38124362D01*
X5984996Y37845000D01*
X6715004Y37845000D01*
X7389444Y38124362D01*
X7905638Y38640556D01*
X8185000Y39314996D01*
X8185000Y40045004D01*
X7905638Y40719444D01*
X7389444Y41235638D01*
X7155453Y41332560D01*
X7550000Y41332560D01*
X7797765Y41381843D01*
X8007809Y41522191D01*
X8148157Y41732235D01*
X8197440Y41980000D01*
X8197440Y44380000D01*
X8148157Y44627765D01*
X8007809Y44837809D01*
X7797765Y44978157D01*
X7550000Y45027440D01*
X5150000Y45027440D01*
X4902235Y44978157D01*
X4692191Y44837809D01*
X4551843Y44627765D01*
X4502560Y44380000D01*
X710000Y44380000D01*
X710000Y52630000D01*
X13298292Y52630000D01*
X12979026Y52310734D01*
X12979026Y52310734D01*
G37*
X12979026Y52310734D02*
X12573000Y51330499D01*
X12573000Y50269501D01*
X12979026Y49289266D01*
X13729266Y48539026D01*
X14709501Y48133000D01*
X15770499Y48133000D01*
X16750734Y48539026D01*
X17500974Y49289266D01*
X17654156Y49659082D01*
X17715570Y49567170D01*
X18211276Y49235950D01*
X18796000Y49119641D01*
X19380725Y49235950D01*
X19876430Y49567170D01*
X20066000Y49850881D01*
X20255570Y49567170D01*
X20751276Y49235950D01*
X21336000Y49119641D01*
X21920725Y49235950D01*
X22416430Y49567170D01*
X22606000Y49850881D01*
X22795570Y49567170D01*
X23291276Y49235950D01*
X23876000Y49119641D01*
X24460725Y49235950D01*
X24956430Y49567170D01*
X25149909Y49856733D01*
X25513964Y49449268D01*
X26041209Y49195291D01*
X26056974Y49192642D01*
X26289000Y49313783D01*
X26289000Y50673000D01*
X26269000Y50673000D01*
X26269000Y50927000D01*
X26289000Y50927000D01*
X26289000Y52286217D01*
X26543000Y52286217D01*
X26543000Y50927000D01*
X26563000Y50927000D01*
X26563000Y50673000D01*
X26543000Y50673000D01*
X26543000Y49313783D01*
X26775026Y49192642D01*
X26790791Y49195291D01*
X27318036Y49449268D01*
X27682090Y49856732D01*
X27875570Y49567170D01*
X28371276Y49235950D01*
X28956000Y49119641D01*
X29540725Y49235950D01*
X30036430Y49567170D01*
X30226000Y49850881D01*
X30415570Y49567170D01*
X30911276Y49235950D01*
X31496000Y49119641D01*
X32080725Y49235950D01*
X32576430Y49567170D01*
X32766000Y49850881D01*
X32955570Y49567170D01*
X33451276Y49235950D01*
X34036000Y49119641D01*
X34620725Y49235950D01*
X35116430Y49567170D01*
X35306000Y49850881D01*
X35495570Y49567170D01*
X35991276Y49235950D01*
X36576000Y49119641D01*
X37160725Y49235950D01*
X37656430Y49567170D01*
X37846000Y49850881D01*
X38035570Y49567170D01*
X38531276Y49235950D01*
X39116000Y49119641D01*
X39700725Y49235950D01*
X40196430Y49567170D01*
X40386000Y49850881D01*
X40575570Y49567170D01*
X41071276Y49235950D01*
X41656000Y49119641D01*
X42240725Y49235950D01*
X42736430Y49567170D01*
X43067650Y50062876D01*
X43154600Y50500003D01*
X43154600Y51099997D01*
X44221400Y51099997D01*
X44221400Y50500002D01*
X44308350Y50062875D01*
X44639570Y49567170D01*
X45135276Y49235950D01*
X45720000Y49119641D01*
X46304725Y49235950D01*
X46800430Y49567170D01*
X46990000Y49850881D01*
X47179570Y49567170D01*
X47675276Y49235950D01*
X48260000Y49119641D01*
X48844725Y49235950D01*
X49340430Y49567170D01*
X49530000Y49850881D01*
X49719570Y49567170D01*
X50215276Y49235950D01*
X50800000Y49119641D01*
X51384725Y49235950D01*
X51880430Y49567170D01*
X52070000Y49850881D01*
X52259570Y49567170D01*
X52755276Y49235950D01*
X53340000Y49119641D01*
X53924725Y49235950D01*
X54420430Y49567170D01*
X54610000Y49850881D01*
X54799570Y49567170D01*
X55295276Y49235950D01*
X55880000Y49119641D01*
X56464725Y49235950D01*
X56960430Y49567170D01*
X57150000Y49850881D01*
X57339570Y49567170D01*
X57835276Y49235950D01*
X58420000Y49119641D01*
X59004725Y49235950D01*
X59500430Y49567170D01*
X59690000Y49850881D01*
X59879570Y49567170D01*
X60375276Y49235950D01*
X60960000Y49119641D01*
X61544725Y49235950D01*
X62040430Y49567170D01*
X62230000Y49850881D01*
X62419570Y49567170D01*
X62915276Y49235950D01*
X63500000Y49119641D01*
X64084725Y49235950D01*
X64580430Y49567170D01*
X64911650Y50062876D01*
X64998600Y50500003D01*
X64998600Y51099998D01*
X64911650Y51537125D01*
X64580430Y52032830D01*
X64084724Y52364050D01*
X63500000Y52480359D01*
X62915275Y52364050D01*
X62419570Y52032830D01*
X62230000Y51749119D01*
X62040430Y52032830D01*
X61544724Y52364050D01*
X60960000Y52480359D01*
X60375275Y52364050D01*
X59879570Y52032830D01*
X59690000Y51749119D01*
X59500430Y52032830D01*
X59004724Y52364050D01*
X58420000Y52480359D01*
X57835275Y52364050D01*
X57339570Y52032830D01*
X57150000Y51749119D01*
X56960430Y52032830D01*
X56464724Y52364050D01*
X55880000Y52480359D01*
X55295275Y52364050D01*
X54799570Y52032830D01*
X54610000Y51749119D01*
X54420430Y52032830D01*
X53924724Y52364050D01*
X53340000Y52480359D01*
X52755275Y52364050D01*
X52259570Y52032830D01*
X52070000Y51749119D01*
X51880430Y52032830D01*
X51384724Y52364050D01*
X50800000Y52480359D01*
X50215275Y52364050D01*
X49719570Y52032830D01*
X49530000Y51749119D01*
X49340430Y52032830D01*
X48844724Y52364050D01*
X48260000Y52480359D01*
X47675275Y52364050D01*
X47179570Y52032830D01*
X46990000Y51749119D01*
X46800430Y52032830D01*
X46304724Y52364050D01*
X45720000Y52480359D01*
X45135275Y52364050D01*
X44639570Y52032830D01*
X44308350Y51537124D01*
X44221400Y51099997D01*
X43154600Y51099997D01*
X43154600Y51099998D01*
X43067650Y51537125D01*
X42736430Y52032830D01*
X42240724Y52364050D01*
X41656000Y52480359D01*
X41071275Y52364050D01*
X40575570Y52032830D01*
X40386000Y51749119D01*
X40196430Y52032830D01*
X39700724Y52364050D01*
X39116000Y52480359D01*
X38531275Y52364050D01*
X38035570Y52032830D01*
X37846000Y51749119D01*
X37656430Y52032830D01*
X37160724Y52364050D01*
X36576000Y52480359D01*
X35991275Y52364050D01*
X35495570Y52032830D01*
X35306000Y51749119D01*
X35116430Y52032830D01*
X34620724Y52364050D01*
X34036000Y52480359D01*
X33451275Y52364050D01*
X32955570Y52032830D01*
X32766000Y51749119D01*
X32576430Y52032830D01*
X32080724Y52364050D01*
X31496000Y52480359D01*
X30911275Y52364050D01*
X30415570Y52032830D01*
X30226000Y51749119D01*
X30036430Y52032830D01*
X29540724Y52364050D01*
X28956000Y52480359D01*
X28371275Y52364050D01*
X27875570Y52032830D01*
X27682091Y51743267D01*
X27318036Y52150732D01*
X26790791Y52404709D01*
X26775026Y52407358D01*
X26543000Y52286217D01*
X26289000Y52286217D01*
X26056974Y52407358D01*
X26041209Y52404709D01*
X25513964Y52150732D01*
X25149910Y51743268D01*
X24956430Y52032830D01*
X24460724Y52364050D01*
X23876000Y52480359D01*
X23291275Y52364050D01*
X22795570Y52032830D01*
X22606000Y51749119D01*
X22416430Y52032830D01*
X21920724Y52364050D01*
X21336000Y52480359D01*
X20751275Y52364050D01*
X20255570Y52032830D01*
X20066000Y51749119D01*
X19876430Y52032830D01*
X19380724Y52364050D01*
X18796000Y52480359D01*
X18211275Y52364050D01*
X17715570Y52032830D01*
X17654156Y51940918D01*
X17500974Y52310734D01*
X17181708Y52630000D01*
X64221910Y52630000D01*
X65330001Y51521908D01*
X65330000Y40455924D01*
X65316091Y40386000D01*
X65330000Y40316076D01*
X65330000Y40316075D01*
X65371195Y40108973D01*
X65528119Y39874120D01*
X65587402Y39834508D01*
X67870001Y37551908D01*
X67870001Y37501707D01*
X67550734Y37820974D01*
X66570499Y38227000D01*
X65509501Y38227000D01*
X64529266Y37820974D01*
X63779026Y37070734D01*
X63373000Y36090499D01*
X63373000Y35029501D01*
X63779026Y34049266D01*
X64529266Y33299026D01*
X65509501Y32893000D01*
X66570499Y32893000D01*
X67550734Y33299026D01*
X67870001Y33618293D01*
X67870000Y9561708D01*
X67550734Y9880974D01*
X66570499Y10287000D01*
X65509501Y10287000D01*
X64529266Y9880974D01*
X63779026Y9130734D01*
X63373000Y8150499D01*
X63373000Y7089501D01*
X63779026Y6109266D01*
X64529266Y5359026D01*
X65509501Y4953000D01*
X66570499Y4953000D01*
X67550734Y5359026D01*
X67870000Y5678292D01*
X67870000Y5374091D01*
X65587402Y3091492D01*
X65528120Y3051881D01*
X65386544Y2839998D01*
X65371196Y2817028D01*
X65316091Y2540000D01*
X65330001Y2470071D01*
X65330000Y710000D01*
X15911708Y710000D01*
X16230974Y1029266D01*
X16637000Y2009501D01*
X16637000Y2839997D01*
X26441400Y2839997D01*
X26441400Y2240002D01*
X26528350Y1802875D01*
X26859570Y1307170D01*
X27355276Y975950D01*
X27940000Y859641D01*
X28524725Y975950D01*
X29020430Y1307170D01*
X29210000Y1590881D01*
X29399570Y1307170D01*
X29895276Y975950D01*
X30480000Y859641D01*
X31064725Y975950D01*
X31560430Y1307170D01*
X31750000Y1590881D01*
X31939570Y1307170D01*
X32435276Y975950D01*
X33020000Y859641D01*
X33604725Y975950D01*
X34100430Y1307170D01*
X34290000Y1590881D01*
X34479570Y1307170D01*
X34975276Y975950D01*
X35560000Y859641D01*
X36144725Y975950D01*
X36640430Y1307170D01*
X36830000Y1590881D01*
X37019570Y1307170D01*
X37515276Y975950D01*
X38100000Y859641D01*
X38684725Y975950D01*
X39180430Y1307170D01*
X39373909Y1596733D01*
X39737964Y1189268D01*
X40265209Y935291D01*
X40280974Y932642D01*
X40513000Y1053783D01*
X40513000Y2413000D01*
X40767000Y2413000D01*
X40767000Y1053783D01*
X40999026Y932642D01*
X41014791Y935291D01*
X41542036Y1189268D01*
X41910000Y1601108D01*
X42277964Y1189268D01*
X42805209Y935291D01*
X42820974Y932642D01*
X43053000Y1053783D01*
X43053000Y2413000D01*
X40767000Y2413000D01*
X40513000Y2413000D01*
X40493000Y2413000D01*
X40493000Y2667000D01*
X40513000Y2667000D01*
X40513000Y4026217D01*
X40767000Y4026217D01*
X40767000Y2667000D01*
X43053000Y2667000D01*
X43053000Y4026217D01*
X43307000Y4026217D01*
X43307000Y2667000D01*
X43327000Y2667000D01*
X43327000Y2413000D01*
X43307000Y2413000D01*
X43307000Y1053783D01*
X43539026Y932642D01*
X43554791Y935291D01*
X44082036Y1189268D01*
X44446090Y1596732D01*
X44639570Y1307170D01*
X45135276Y975950D01*
X45720000Y859641D01*
X46304725Y975950D01*
X46800430Y1307170D01*
X47131650Y1802876D01*
X47218600Y2240003D01*
X47218600Y2839997D01*
X49301400Y2839997D01*
X49301400Y2240002D01*
X49388350Y1802875D01*
X49719570Y1307170D01*
X50215276Y975950D01*
X50800000Y859641D01*
X51384725Y975950D01*
X51880430Y1307170D01*
X52070000Y1590881D01*
X52259570Y1307170D01*
X52755276Y975950D01*
X53340000Y859641D01*
X53924725Y975950D01*
X54420430Y1307170D01*
X54610000Y1590881D01*
X54799570Y1307170D01*
X55295276Y975950D01*
X55880000Y859641D01*
X56464725Y975950D01*
X56960430Y1307170D01*
X57150000Y1590881D01*
X57339570Y1307170D01*
X57835276Y975950D01*
X58420000Y859641D01*
X59004725Y975950D01*
X59500430Y1307170D01*
X59690000Y1590881D01*
X59879570Y1307170D01*
X60375276Y975950D01*
X60960000Y859641D01*
X61544725Y975950D01*
X62040430Y1307170D01*
X62230000Y1590881D01*
X62419570Y1307170D01*
X62915276Y975950D01*
X63500000Y859641D01*
X64084725Y975950D01*
X64580430Y1307170D01*
X64911650Y1802876D01*
X64998600Y2240003D01*
X64998600Y2839998D01*
X64911650Y3277125D01*
X64580430Y3772830D01*
X64084724Y4104050D01*
X63500000Y4220359D01*
X62915275Y4104050D01*
X62419570Y3772830D01*
X62230000Y3489119D01*
X62040430Y3772830D01*
X61544724Y4104050D01*
X60960000Y4220359D01*
X60375275Y4104050D01*
X59879570Y3772830D01*
X59690000Y3489119D01*
X59500430Y3772830D01*
X59004724Y4104050D01*
X58420000Y4220359D01*
X57835275Y4104050D01*
X57339570Y3772830D01*
X57150000Y3489119D01*
X56960430Y3772830D01*
X56464724Y4104050D01*
X55880000Y4220359D01*
X55295275Y4104050D01*
X54799570Y3772830D01*
X54610000Y3489119D01*
X54420430Y3772830D01*
X53924724Y4104050D01*
X53340000Y4220359D01*
X52755275Y4104050D01*
X52259570Y3772830D01*
X52070000Y3489119D01*
X51880430Y3772830D01*
X51384724Y4104050D01*
X50800000Y4220359D01*
X50215275Y4104050D01*
X49719570Y3772830D01*
X49388350Y3277124D01*
X49301400Y2839997D01*
X47218600Y2839997D01*
X47218600Y2839998D01*
X47131650Y3277125D01*
X46800430Y3772830D01*
X46304724Y4104050D01*
X45720000Y4220359D01*
X45135275Y4104050D01*
X44639570Y3772830D01*
X44446091Y3483267D01*
X44082036Y3890732D01*
X43554791Y4144709D01*
X43539026Y4147358D01*
X43307000Y4026217D01*
X43053000Y4026217D01*
X42820974Y4147358D01*
X42805209Y4144709D01*
X42277964Y3890732D01*
X41910000Y3478892D01*
X41542036Y3890732D01*
X41014791Y4144709D01*
X40999026Y4147358D01*
X40767000Y4026217D01*
X40513000Y4026217D01*
X40280974Y4147358D01*
X40265209Y4144709D01*
X39737964Y3890732D01*
X39373910Y3483268D01*
X39180430Y3772830D01*
X38684724Y4104050D01*
X38100000Y4220359D01*
X37515275Y4104050D01*
X37019570Y3772830D01*
X36830000Y3489119D01*
X36640430Y3772830D01*
X36144724Y4104050D01*
X35560000Y4220359D01*
X34975275Y4104050D01*
X34479570Y3772830D01*
X34290000Y3489119D01*
X34100430Y3772830D01*
X33604724Y4104050D01*
X33020000Y4220359D01*
X32435275Y4104050D01*
X31939570Y3772830D01*
X31750000Y3489119D01*
X31560430Y3772830D01*
X31064724Y4104050D01*
X30480000Y4220359D01*
X29895275Y4104050D01*
X29399570Y3772830D01*
X29210000Y3489119D01*
X29020430Y3772830D01*
X28524724Y4104050D01*
X27940000Y4220359D01*
X27355275Y4104050D01*
X26859570Y3772830D01*
X26528350Y3277124D01*
X26441400Y2839997D01*
X16637000Y2839997D01*
X16637000Y3070499D01*
X16230974Y4050734D01*
X15480734Y4800974D01*
X14500499Y5207000D01*
X13439501Y5207000D01*
X12459266Y4800974D01*
X11709026Y4050734D01*
X11303000Y3070499D01*
X11303000Y2009501D01*
X11709026Y1029266D01*
X12028292Y710000D01*
X710000Y710000D01*
X710000Y5997825D01*
X5232430Y5997825D01*
X5355565Y5710212D01*
X6037734Y5450293D01*
X6767443Y5471214D01*
X7344435Y5710212D01*
X7467570Y5997825D01*
X6350000Y7115395D01*
X5232430Y5997825D01*
X710000Y5997825D01*
X710000Y7607266D01*
X4505293Y7607266D01*
X4526214Y6877557D01*
X4765212Y6300565D01*
X5052825Y6177430D01*
X6170395Y7295000D01*
X6529605Y7295000D01*
X7647175Y6177430D01*
X7934788Y6300565D01*
X8194707Y6982734D01*
X8186459Y7270439D01*
X47460000Y7270439D01*
X47460000Y6699561D01*
X47678466Y6172138D01*
X48082138Y5768466D01*
X48609561Y5550000D01*
X49180439Y5550000D01*
X49707862Y5768466D01*
X50111534Y6172138D01*
X50330000Y6699561D01*
X50330000Y7270439D01*
X53175000Y7270439D01*
X53175000Y6699561D01*
X53393466Y6172138D01*
X53797138Y5768466D01*
X54324561Y5550000D01*
X54895439Y5550000D01*
X55422862Y5768466D01*
X55826534Y6172138D01*
X56045000Y6699561D01*
X56045000Y7270439D01*
X55826534Y7797862D01*
X55422862Y8201534D01*
X54895439Y8420000D01*
X54324561Y8420000D01*
X53797138Y8201534D01*
X53393466Y7797862D01*
X53175000Y7270439D01*
X50330000Y7270439D01*
X50111534Y7797862D01*
X49707862Y8201534D01*
X49180439Y8420000D01*
X48609561Y8420000D01*
X48082138Y8201534D01*
X47678466Y7797862D01*
X47460000Y7270439D01*
X8186459Y7270439D01*
X8173786Y7712443D01*
X7934788Y8289435D01*
X7647175Y8412570D01*
X6529605Y7295000D01*
X6170395Y7295000D01*
X5052825Y8412570D01*
X4765212Y8289435D01*
X4505293Y7607266D01*
X710000Y7607266D01*
X710000Y11995000D01*
X4502560Y11995000D01*
X4502560Y9595000D01*
X4551843Y9347235D01*
X4692191Y9137191D01*
X4902235Y8996843D01*
X5150000Y8947560D01*
X5519181Y8947560D01*
X5355565Y8879788D01*
X5232430Y8592175D01*
X6350000Y7474605D01*
X7467570Y8592175D01*
X7344435Y8879788D01*
X7166564Y8947560D01*
X7550000Y8947560D01*
X7797765Y8996843D01*
X8007809Y9137191D01*
X8148157Y9347235D01*
X8197440Y9595000D01*
X8197440Y10977255D01*
X48066861Y10977255D01*
X48140995Y10731136D01*
X48678223Y10538035D01*
X49248454Y10565222D01*
X49649005Y10731136D01*
X49723139Y10977255D01*
X53781861Y10977255D01*
X53855995Y10731136D01*
X54393223Y10538035D01*
X54963454Y10565222D01*
X55364005Y10731136D01*
X55438139Y10977255D01*
X54610000Y11805395D01*
X53781861Y10977255D01*
X49723139Y10977255D01*
X48895000Y11805395D01*
X48066861Y10977255D01*
X8197440Y10977255D01*
X8197440Y11995000D01*
X8156310Y12201777D01*
X47448035Y12201777D01*
X47475222Y11631546D01*
X47641136Y11230995D01*
X47887255Y11156861D01*
X48715395Y11985000D01*
X49074605Y11985000D01*
X49902745Y11156861D01*
X50148864Y11230995D01*
X50341965Y11768223D01*
X50321295Y12201777D01*
X53163035Y12201777D01*
X53190222Y11631546D01*
X53356136Y11230995D01*
X53602255Y11156861D01*
X54430395Y11985000D01*
X54789605Y11985000D01*
X55617745Y11156861D01*
X55863864Y11230995D01*
X56056965Y11768223D01*
X56029778Y12338454D01*
X55863864Y12739005D01*
X55617745Y12813139D01*
X54789605Y11985000D01*
X54430395Y11985000D01*
X53602255Y12813139D01*
X53356136Y12739005D01*
X53163035Y12201777D01*
X50321295Y12201777D01*
X50314778Y12338454D01*
X50148864Y12739005D01*
X49902745Y12813139D01*
X49074605Y11985000D01*
X48715395Y11985000D01*
X47887255Y12813139D01*
X47641136Y12739005D01*
X47448035Y12201777D01*
X8156310Y12201777D01*
X8148157Y12242765D01*
X8007809Y12452809D01*
X7797765Y12593157D01*
X7550000Y12642440D01*
X5150000Y12642440D01*
X4902235Y12593157D01*
X4692191Y12452809D01*
X4551843Y12242765D01*
X4502560Y11995000D01*
X710000Y11995000D01*
X710000Y12992745D01*
X48066861Y12992745D01*
X48895000Y12164605D01*
X49723139Y12992745D01*
X53781861Y12992745D01*
X54610000Y12164605D01*
X55438139Y12992745D01*
X55364005Y13238864D01*
X54826777Y13431965D01*
X54256546Y13404778D01*
X53855995Y13238864D01*
X53781861Y12992745D01*
X49723139Y12992745D01*
X49649005Y13238864D01*
X49111777Y13431965D01*
X48541546Y13404778D01*
X48140995Y13238864D01*
X48066861Y12992745D01*
X710000Y12992745D01*
X710000Y15805000D01*
X61017560Y15805000D01*
X61017560Y13405000D01*
X61066843Y13157235D01*
X61207191Y12947191D01*
X61417235Y12806843D01*
X61665000Y12757560D01*
X64065000Y12757560D01*
X64312765Y12806843D01*
X64522809Y12947191D01*
X64663157Y13157235D01*
X64712440Y13405000D01*
X64712440Y15805000D01*
X64663157Y16052765D01*
X64522809Y16262809D01*
X64312765Y16403157D01*
X64065000Y16452440D01*
X63695819Y16452440D01*
X63859435Y16520212D01*
X63982570Y16807825D01*
X62865000Y17925395D01*
X61747430Y16807825D01*
X61870565Y16520212D01*
X62048436Y16452440D01*
X61665000Y16452440D01*
X61417235Y16403157D01*
X61207191Y16262809D01*
X61066843Y16052765D01*
X61017560Y15805000D01*
X710000Y15805000D01*
X710000Y22790000D01*
X4502560Y22790000D01*
X4502560Y20390000D01*
X4551843Y20142235D01*
X4692191Y19932191D01*
X4902235Y19791843D01*
X5150000Y19742560D01*
X5544547Y19742560D01*
X5310556Y19645638D01*
X4794362Y19129444D01*
X4515000Y18455004D01*
X4515000Y17724996D01*
X4794362Y17050556D01*
X5310556Y16534362D01*
X5984996Y16255000D01*
X6715004Y16255000D01*
X7389444Y16534362D01*
X7905638Y17050556D01*
X8185000Y17724996D01*
X8185000Y18417266D01*
X61020293Y18417266D01*
X61041214Y17687557D01*
X61280212Y17110565D01*
X61567825Y16987430D01*
X62685395Y18105000D01*
X63044605Y18105000D01*
X64162175Y16987430D01*
X64449788Y17110565D01*
X64709707Y17792734D01*
X64688786Y18522443D01*
X64449788Y19099435D01*
X64162175Y19222570D01*
X63044605Y18105000D01*
X62685395Y18105000D01*
X61567825Y19222570D01*
X61280212Y19099435D01*
X61020293Y18417266D01*
X8185000Y18417266D01*
X8185000Y18455004D01*
X7905638Y19129444D01*
X7632907Y19402175D01*
X61747430Y19402175D01*
X62865000Y18284605D01*
X63982570Y19402175D01*
X63859435Y19689788D01*
X63177266Y19949707D01*
X62447557Y19928786D01*
X61870565Y19689788D01*
X61747430Y19402175D01*
X7632907Y19402175D01*
X7389444Y19645638D01*
X7155453Y19742560D01*
X7550000Y19742560D01*
X7797765Y19791843D01*
X8007809Y19932191D01*
X8148157Y20142235D01*
X8197440Y20390000D01*
X8197440Y22790000D01*
X8148157Y23037765D01*
X8142666Y23045983D01*
X39070000Y23045983D01*
X39070000Y22674017D01*
X39212345Y22330365D01*
X39475365Y22067345D01*
X39819017Y21925000D01*
X40190983Y21925000D01*
X40534635Y22067345D01*
X40797655Y22330365D01*
X40843656Y22441421D01*
X44367235Y25965000D01*
X61017560Y25965000D01*
X61017560Y23565000D01*
X61066843Y23317235D01*
X61207191Y23107191D01*
X61417235Y22966843D01*
X61665000Y22917560D01*
X64065000Y22917560D01*
X64312765Y22966843D01*
X64522809Y23107191D01*
X64663157Y23317235D01*
X64712440Y23565000D01*
X64712440Y25965000D01*
X64663157Y26212765D01*
X64522809Y26422809D01*
X64312765Y26563157D01*
X64065000Y26612440D01*
X63695819Y26612440D01*
X63859435Y26680212D01*
X63982570Y26967825D01*
X62865000Y28085395D01*
X61747430Y26967825D01*
X61870565Y26680212D01*
X62048436Y26612440D01*
X61665000Y26612440D01*
X61417235Y26563157D01*
X61207191Y26422809D01*
X61066843Y26212765D01*
X61017560Y25965000D01*
X44367235Y25965000D01*
X45503581Y27101345D01*
X45614635Y27147345D01*
X45877655Y27410365D01*
X46020000Y27754017D01*
X46020000Y28125983D01*
X45877655Y28469635D01*
X45770024Y28577266D01*
X61020293Y28577266D01*
X61041214Y27847557D01*
X61280212Y27270565D01*
X61567825Y27147430D01*
X62685395Y28265000D01*
X63044605Y28265000D01*
X64162175Y27147430D01*
X64449788Y27270565D01*
X64709707Y27952734D01*
X64688786Y28682443D01*
X64449788Y29259435D01*
X64162175Y29382570D01*
X63044605Y28265000D01*
X62685395Y28265000D01*
X61567825Y29382570D01*
X61280212Y29259435D01*
X61020293Y28577266D01*
X45770024Y28577266D01*
X45614635Y28732655D01*
X45270983Y28875000D01*
X44899017Y28875000D01*
X44555365Y28732655D01*
X44292345Y28469635D01*
X44246345Y28358581D01*
X39586421Y23698656D01*
X39475365Y23652655D01*
X39212345Y23389635D01*
X39070000Y23045983D01*
X8142666Y23045983D01*
X8007809Y23247809D01*
X7797765Y23388157D01*
X7550000Y23437440D01*
X5150000Y23437440D01*
X4902235Y23388157D01*
X4692191Y23247809D01*
X4551843Y23037765D01*
X4502560Y22790000D01*
X710000Y22790000D01*
X710000Y27587825D01*
X5232430Y27587825D01*
X5355565Y27300212D01*
X6037734Y27040293D01*
X6767443Y27061214D01*
X7344435Y27300212D01*
X7467570Y27587825D01*
X6350000Y28705395D01*
X5232430Y27587825D01*
X710000Y27587825D01*
X710000Y29197266D01*
X4505293Y29197266D01*
X4526214Y28467557D01*
X4765212Y27890565D01*
X5052825Y27767430D01*
X6170395Y28885000D01*
X6529605Y28885000D01*
X7647175Y27767430D01*
X7934788Y27890565D01*
X8194707Y28572734D01*
X8178387Y29141983D01*
X36149000Y29141983D01*
X36149000Y28770017D01*
X36291345Y28426365D01*
X36554365Y28163345D01*
X36898017Y28021000D01*
X37269983Y28021000D01*
X37457241Y28098564D01*
X37557870Y28118581D01*
X37851933Y28315067D01*
X37901531Y28389296D01*
X39074410Y29562175D01*
X61747430Y29562175D01*
X62865000Y28444605D01*
X63982570Y29562175D01*
X63859435Y29849788D01*
X63177266Y30109707D01*
X62447557Y30088786D01*
X61870565Y29849788D01*
X61747430Y29562175D01*
X39074410Y29562175D01*
X41693581Y32181345D01*
X41804635Y32227345D01*
X42067655Y32490365D01*
X42210000Y32834017D01*
X42210000Y33205983D01*
X42067655Y33549635D01*
X41804635Y33812655D01*
X41460983Y33955000D01*
X41089017Y33955000D01*
X40745365Y33812655D01*
X40482345Y33549635D01*
X40436345Y33438581D01*
X36882223Y29884458D01*
X36554365Y29748655D01*
X36291345Y29485635D01*
X36149000Y29141983D01*
X8178387Y29141983D01*
X8173786Y29302443D01*
X7934788Y29879435D01*
X7647175Y30002570D01*
X6529605Y28885000D01*
X6170395Y28885000D01*
X5052825Y30002570D01*
X4765212Y29879435D01*
X4505293Y29197266D01*
X710000Y29197266D01*
X710000Y33585000D01*
X4502560Y33585000D01*
X4502560Y31185000D01*
X4551843Y30937235D01*
X4692191Y30727191D01*
X4902235Y30586843D01*
X5150000Y30537560D01*
X5519181Y30537560D01*
X5355565Y30469788D01*
X5232430Y30182175D01*
X6350000Y29064605D01*
X7467570Y30182175D01*
X7344435Y30469788D01*
X7166564Y30537560D01*
X7550000Y30537560D01*
X7797765Y30586843D01*
X8007809Y30727191D01*
X8148157Y30937235D01*
X8197440Y31185000D01*
X8197440Y33585000D01*
X8148157Y33832765D01*
X8007809Y34042809D01*
X7797765Y34183157D01*
X7550000Y34232440D01*
X5150000Y34232440D01*
X4902235Y34183157D01*
X4692191Y34042809D01*
X4551843Y33832765D01*
X4502560Y33585000D01*
X710000Y33585000D01*
X710000Y44380000D01*
X4502560Y44380000D01*
X4502560Y41980000D01*
X4551843Y41732235D01*
X4692191Y41522191D01*
X4902235Y41381843D01*
X5150000Y41332560D01*
X5544547Y41332560D01*
X5310556Y41235638D01*
X4794362Y40719444D01*
X4515000Y40045004D01*
X4515000Y39314996D01*
X4794362Y38640556D01*
X5310556Y38124362D01*
X5984996Y37845000D01*
X6715004Y37845000D01*
X7389444Y38124362D01*
X7905638Y38640556D01*
X8185000Y39314996D01*
X8185000Y40045004D01*
X7905638Y40719444D01*
X7389444Y41235638D01*
X7155453Y41332560D01*
X7550000Y41332560D01*
X7797765Y41381843D01*
X8007809Y41522191D01*
X8148157Y41732235D01*
X8197440Y41980000D01*
X8197440Y44380000D01*
X8148157Y44627765D01*
X8007809Y44837809D01*
X7797765Y44978157D01*
X7550000Y45027440D01*
X5150000Y45027440D01*
X4902235Y44978157D01*
X4692191Y44837809D01*
X4551843Y44627765D01*
X4502560Y44380000D01*
X710000Y44380000D01*
X710000Y52630000D01*
X13298292Y52630000D01*
X12979026Y52310734D01*
G04 #@! TD*
M02*
