G04 #@! TF.GenerationSoftware,KiCad,Pcbnew,(5.0.0)*
G04 #@! TF.CreationDate,2018-08-15T19:41:19+08:00*
G04 #@! TF.ProjectId,Reflow,5265666C6F772E6B696361645F706362,rev?*
G04 #@! TF.SameCoordinates,PX69db1f0PY7882d48*
G04 #@! TF.FileFunction,Soldermask,Top*
G04 #@! TF.FilePolarity,Negative*
%FSLAX46Y46*%
G04 Gerber Fmt 4.6, Leading zero omitted, Abs format (unit mm)*
G04 Created by KiCad (PCBNEW (5.0.0)) date 08/15/18 19:41:19*
%MOMM*%
%LPD*%
G01*
G04 APERTURE LIST*
%ADD10C,0.100000*%
%ADD11C,0.975000*%
%ADD12C,1.600000*%
%ADD13R,2.600000X1.600000*%
%ADD14R,0.450000X1.450000*%
%ADD15C,2.400000*%
%ADD16R,2.400000X2.400000*%
%ADD17O,1.727200X2.032000*%
%ADD18C,4.064000*%
G04 APERTURE END LIST*
D10*
G04 #@! TO.C,C13*
G36*
X27905142Y38798826D02*
X27928803Y38795316D01*
X27952007Y38789504D01*
X27974529Y38781446D01*
X27996153Y38771218D01*
X28016670Y38758921D01*
X28035883Y38744671D01*
X28053607Y38728607D01*
X28069671Y38710883D01*
X28083921Y38691670D01*
X28096218Y38671153D01*
X28106446Y38649529D01*
X28114504Y38627007D01*
X28120316Y38603803D01*
X28123826Y38580142D01*
X28125000Y38556250D01*
X28125000Y37643750D01*
X28123826Y37619858D01*
X28120316Y37596197D01*
X28114504Y37572993D01*
X28106446Y37550471D01*
X28096218Y37528847D01*
X28083921Y37508330D01*
X28069671Y37489117D01*
X28053607Y37471393D01*
X28035883Y37455329D01*
X28016670Y37441079D01*
X27996153Y37428782D01*
X27974529Y37418554D01*
X27952007Y37410496D01*
X27928803Y37404684D01*
X27905142Y37401174D01*
X27881250Y37400000D01*
X27393750Y37400000D01*
X27369858Y37401174D01*
X27346197Y37404684D01*
X27322993Y37410496D01*
X27300471Y37418554D01*
X27278847Y37428782D01*
X27258330Y37441079D01*
X27239117Y37455329D01*
X27221393Y37471393D01*
X27205329Y37489117D01*
X27191079Y37508330D01*
X27178782Y37528847D01*
X27168554Y37550471D01*
X27160496Y37572993D01*
X27154684Y37596197D01*
X27151174Y37619858D01*
X27150000Y37643750D01*
X27150000Y38556250D01*
X27151174Y38580142D01*
X27154684Y38603803D01*
X27160496Y38627007D01*
X27168554Y38649529D01*
X27178782Y38671153D01*
X27191079Y38691670D01*
X27205329Y38710883D01*
X27221393Y38728607D01*
X27239117Y38744671D01*
X27258330Y38758921D01*
X27278847Y38771218D01*
X27300471Y38781446D01*
X27322993Y38789504D01*
X27346197Y38795316D01*
X27369858Y38798826D01*
X27393750Y38800000D01*
X27881250Y38800000D01*
X27905142Y38798826D01*
X27905142Y38798826D01*
G37*
D11*
X27637500Y38100000D03*
D10*
G36*
X29780142Y38798826D02*
X29803803Y38795316D01*
X29827007Y38789504D01*
X29849529Y38781446D01*
X29871153Y38771218D01*
X29891670Y38758921D01*
X29910883Y38744671D01*
X29928607Y38728607D01*
X29944671Y38710883D01*
X29958921Y38691670D01*
X29971218Y38671153D01*
X29981446Y38649529D01*
X29989504Y38627007D01*
X29995316Y38603803D01*
X29998826Y38580142D01*
X30000000Y38556250D01*
X30000000Y37643750D01*
X29998826Y37619858D01*
X29995316Y37596197D01*
X29989504Y37572993D01*
X29981446Y37550471D01*
X29971218Y37528847D01*
X29958921Y37508330D01*
X29944671Y37489117D01*
X29928607Y37471393D01*
X29910883Y37455329D01*
X29891670Y37441079D01*
X29871153Y37428782D01*
X29849529Y37418554D01*
X29827007Y37410496D01*
X29803803Y37404684D01*
X29780142Y37401174D01*
X29756250Y37400000D01*
X29268750Y37400000D01*
X29244858Y37401174D01*
X29221197Y37404684D01*
X29197993Y37410496D01*
X29175471Y37418554D01*
X29153847Y37428782D01*
X29133330Y37441079D01*
X29114117Y37455329D01*
X29096393Y37471393D01*
X29080329Y37489117D01*
X29066079Y37508330D01*
X29053782Y37528847D01*
X29043554Y37550471D01*
X29035496Y37572993D01*
X29029684Y37596197D01*
X29026174Y37619858D01*
X29025000Y37643750D01*
X29025000Y38556250D01*
X29026174Y38580142D01*
X29029684Y38603803D01*
X29035496Y38627007D01*
X29043554Y38649529D01*
X29053782Y38671153D01*
X29066079Y38691670D01*
X29080329Y38710883D01*
X29096393Y38728607D01*
X29114117Y38744671D01*
X29133330Y38758921D01*
X29153847Y38771218D01*
X29175471Y38781446D01*
X29197993Y38789504D01*
X29221197Y38795316D01*
X29244858Y38798826D01*
X29268750Y38800000D01*
X29756250Y38800000D01*
X29780142Y38798826D01*
X29780142Y38798826D01*
G37*
D11*
X29512500Y38100000D03*
G04 #@! TD*
D10*
G04 #@! TO.C,C12*
G36*
X29780142Y17208826D02*
X29803803Y17205316D01*
X29827007Y17199504D01*
X29849529Y17191446D01*
X29871153Y17181218D01*
X29891670Y17168921D01*
X29910883Y17154671D01*
X29928607Y17138607D01*
X29944671Y17120883D01*
X29958921Y17101670D01*
X29971218Y17081153D01*
X29981446Y17059529D01*
X29989504Y17037007D01*
X29995316Y17013803D01*
X29998826Y16990142D01*
X30000000Y16966250D01*
X30000000Y16053750D01*
X29998826Y16029858D01*
X29995316Y16006197D01*
X29989504Y15982993D01*
X29981446Y15960471D01*
X29971218Y15938847D01*
X29958921Y15918330D01*
X29944671Y15899117D01*
X29928607Y15881393D01*
X29910883Y15865329D01*
X29891670Y15851079D01*
X29871153Y15838782D01*
X29849529Y15828554D01*
X29827007Y15820496D01*
X29803803Y15814684D01*
X29780142Y15811174D01*
X29756250Y15810000D01*
X29268750Y15810000D01*
X29244858Y15811174D01*
X29221197Y15814684D01*
X29197993Y15820496D01*
X29175471Y15828554D01*
X29153847Y15838782D01*
X29133330Y15851079D01*
X29114117Y15865329D01*
X29096393Y15881393D01*
X29080329Y15899117D01*
X29066079Y15918330D01*
X29053782Y15938847D01*
X29043554Y15960471D01*
X29035496Y15982993D01*
X29029684Y16006197D01*
X29026174Y16029858D01*
X29025000Y16053750D01*
X29025000Y16966250D01*
X29026174Y16990142D01*
X29029684Y17013803D01*
X29035496Y17037007D01*
X29043554Y17059529D01*
X29053782Y17081153D01*
X29066079Y17101670D01*
X29080329Y17120883D01*
X29096393Y17138607D01*
X29114117Y17154671D01*
X29133330Y17168921D01*
X29153847Y17181218D01*
X29175471Y17191446D01*
X29197993Y17199504D01*
X29221197Y17205316D01*
X29244858Y17208826D01*
X29268750Y17210000D01*
X29756250Y17210000D01*
X29780142Y17208826D01*
X29780142Y17208826D01*
G37*
D11*
X29512500Y16510000D03*
D10*
G36*
X27905142Y17208826D02*
X27928803Y17205316D01*
X27952007Y17199504D01*
X27974529Y17191446D01*
X27996153Y17181218D01*
X28016670Y17168921D01*
X28035883Y17154671D01*
X28053607Y17138607D01*
X28069671Y17120883D01*
X28083921Y17101670D01*
X28096218Y17081153D01*
X28106446Y17059529D01*
X28114504Y17037007D01*
X28120316Y17013803D01*
X28123826Y16990142D01*
X28125000Y16966250D01*
X28125000Y16053750D01*
X28123826Y16029858D01*
X28120316Y16006197D01*
X28114504Y15982993D01*
X28106446Y15960471D01*
X28096218Y15938847D01*
X28083921Y15918330D01*
X28069671Y15899117D01*
X28053607Y15881393D01*
X28035883Y15865329D01*
X28016670Y15851079D01*
X27996153Y15838782D01*
X27974529Y15828554D01*
X27952007Y15820496D01*
X27928803Y15814684D01*
X27905142Y15811174D01*
X27881250Y15810000D01*
X27393750Y15810000D01*
X27369858Y15811174D01*
X27346197Y15814684D01*
X27322993Y15820496D01*
X27300471Y15828554D01*
X27278847Y15838782D01*
X27258330Y15851079D01*
X27239117Y15865329D01*
X27221393Y15881393D01*
X27205329Y15899117D01*
X27191079Y15918330D01*
X27178782Y15938847D01*
X27168554Y15960471D01*
X27160496Y15982993D01*
X27154684Y16006197D01*
X27151174Y16029858D01*
X27150000Y16053750D01*
X27150000Y16966250D01*
X27151174Y16990142D01*
X27154684Y17013803D01*
X27160496Y17037007D01*
X27168554Y17059529D01*
X27178782Y17081153D01*
X27191079Y17101670D01*
X27205329Y17120883D01*
X27221393Y17138607D01*
X27239117Y17154671D01*
X27258330Y17168921D01*
X27278847Y17181218D01*
X27300471Y17191446D01*
X27322993Y17199504D01*
X27346197Y17205316D01*
X27369858Y17208826D01*
X27393750Y17210000D01*
X27881250Y17210000D01*
X27905142Y17208826D01*
X27905142Y17208826D01*
G37*
D11*
X27637500Y16510000D03*
G04 #@! TD*
D12*
G04 #@! TO.C,C10*
X48895000Y11985000D03*
X48895000Y6985000D03*
G04 #@! TD*
G04 #@! TO.C,C11*
X54610000Y6985000D03*
X54610000Y11985000D03*
G04 #@! TD*
D10*
G04 #@! TO.C,R9*
G36*
X27905142Y21018826D02*
X27928803Y21015316D01*
X27952007Y21009504D01*
X27974529Y21001446D01*
X27996153Y20991218D01*
X28016670Y20978921D01*
X28035883Y20964671D01*
X28053607Y20948607D01*
X28069671Y20930883D01*
X28083921Y20911670D01*
X28096218Y20891153D01*
X28106446Y20869529D01*
X28114504Y20847007D01*
X28120316Y20823803D01*
X28123826Y20800142D01*
X28125000Y20776250D01*
X28125000Y19863750D01*
X28123826Y19839858D01*
X28120316Y19816197D01*
X28114504Y19792993D01*
X28106446Y19770471D01*
X28096218Y19748847D01*
X28083921Y19728330D01*
X28069671Y19709117D01*
X28053607Y19691393D01*
X28035883Y19675329D01*
X28016670Y19661079D01*
X27996153Y19648782D01*
X27974529Y19638554D01*
X27952007Y19630496D01*
X27928803Y19624684D01*
X27905142Y19621174D01*
X27881250Y19620000D01*
X27393750Y19620000D01*
X27369858Y19621174D01*
X27346197Y19624684D01*
X27322993Y19630496D01*
X27300471Y19638554D01*
X27278847Y19648782D01*
X27258330Y19661079D01*
X27239117Y19675329D01*
X27221393Y19691393D01*
X27205329Y19709117D01*
X27191079Y19728330D01*
X27178782Y19748847D01*
X27168554Y19770471D01*
X27160496Y19792993D01*
X27154684Y19816197D01*
X27151174Y19839858D01*
X27150000Y19863750D01*
X27150000Y20776250D01*
X27151174Y20800142D01*
X27154684Y20823803D01*
X27160496Y20847007D01*
X27168554Y20869529D01*
X27178782Y20891153D01*
X27191079Y20911670D01*
X27205329Y20930883D01*
X27221393Y20948607D01*
X27239117Y20964671D01*
X27258330Y20978921D01*
X27278847Y20991218D01*
X27300471Y21001446D01*
X27322993Y21009504D01*
X27346197Y21015316D01*
X27369858Y21018826D01*
X27393750Y21020000D01*
X27881250Y21020000D01*
X27905142Y21018826D01*
X27905142Y21018826D01*
G37*
D11*
X27637500Y20320000D03*
D10*
G36*
X29780142Y21018826D02*
X29803803Y21015316D01*
X29827007Y21009504D01*
X29849529Y21001446D01*
X29871153Y20991218D01*
X29891670Y20978921D01*
X29910883Y20964671D01*
X29928607Y20948607D01*
X29944671Y20930883D01*
X29958921Y20911670D01*
X29971218Y20891153D01*
X29981446Y20869529D01*
X29989504Y20847007D01*
X29995316Y20823803D01*
X29998826Y20800142D01*
X30000000Y20776250D01*
X30000000Y19863750D01*
X29998826Y19839858D01*
X29995316Y19816197D01*
X29989504Y19792993D01*
X29981446Y19770471D01*
X29971218Y19748847D01*
X29958921Y19728330D01*
X29944671Y19709117D01*
X29928607Y19691393D01*
X29910883Y19675329D01*
X29891670Y19661079D01*
X29871153Y19648782D01*
X29849529Y19638554D01*
X29827007Y19630496D01*
X29803803Y19624684D01*
X29780142Y19621174D01*
X29756250Y19620000D01*
X29268750Y19620000D01*
X29244858Y19621174D01*
X29221197Y19624684D01*
X29197993Y19630496D01*
X29175471Y19638554D01*
X29153847Y19648782D01*
X29133330Y19661079D01*
X29114117Y19675329D01*
X29096393Y19691393D01*
X29080329Y19709117D01*
X29066079Y19728330D01*
X29053782Y19748847D01*
X29043554Y19770471D01*
X29035496Y19792993D01*
X29029684Y19816197D01*
X29026174Y19839858D01*
X29025000Y19863750D01*
X29025000Y20776250D01*
X29026174Y20800142D01*
X29029684Y20823803D01*
X29035496Y20847007D01*
X29043554Y20869529D01*
X29053782Y20891153D01*
X29066079Y20911670D01*
X29080329Y20930883D01*
X29096393Y20948607D01*
X29114117Y20964671D01*
X29133330Y20978921D01*
X29153847Y20991218D01*
X29175471Y21001446D01*
X29197993Y21009504D01*
X29221197Y21015316D01*
X29244858Y21018826D01*
X29268750Y21020000D01*
X29756250Y21020000D01*
X29780142Y21018826D01*
X29780142Y21018826D01*
G37*
D11*
X29512500Y20320000D03*
G04 #@! TD*
D10*
G04 #@! TO.C,R10*
G36*
X29780142Y42608826D02*
X29803803Y42605316D01*
X29827007Y42599504D01*
X29849529Y42591446D01*
X29871153Y42581218D01*
X29891670Y42568921D01*
X29910883Y42554671D01*
X29928607Y42538607D01*
X29944671Y42520883D01*
X29958921Y42501670D01*
X29971218Y42481153D01*
X29981446Y42459529D01*
X29989504Y42437007D01*
X29995316Y42413803D01*
X29998826Y42390142D01*
X30000000Y42366250D01*
X30000000Y41453750D01*
X29998826Y41429858D01*
X29995316Y41406197D01*
X29989504Y41382993D01*
X29981446Y41360471D01*
X29971218Y41338847D01*
X29958921Y41318330D01*
X29944671Y41299117D01*
X29928607Y41281393D01*
X29910883Y41265329D01*
X29891670Y41251079D01*
X29871153Y41238782D01*
X29849529Y41228554D01*
X29827007Y41220496D01*
X29803803Y41214684D01*
X29780142Y41211174D01*
X29756250Y41210000D01*
X29268750Y41210000D01*
X29244858Y41211174D01*
X29221197Y41214684D01*
X29197993Y41220496D01*
X29175471Y41228554D01*
X29153847Y41238782D01*
X29133330Y41251079D01*
X29114117Y41265329D01*
X29096393Y41281393D01*
X29080329Y41299117D01*
X29066079Y41318330D01*
X29053782Y41338847D01*
X29043554Y41360471D01*
X29035496Y41382993D01*
X29029684Y41406197D01*
X29026174Y41429858D01*
X29025000Y41453750D01*
X29025000Y42366250D01*
X29026174Y42390142D01*
X29029684Y42413803D01*
X29035496Y42437007D01*
X29043554Y42459529D01*
X29053782Y42481153D01*
X29066079Y42501670D01*
X29080329Y42520883D01*
X29096393Y42538607D01*
X29114117Y42554671D01*
X29133330Y42568921D01*
X29153847Y42581218D01*
X29175471Y42591446D01*
X29197993Y42599504D01*
X29221197Y42605316D01*
X29244858Y42608826D01*
X29268750Y42610000D01*
X29756250Y42610000D01*
X29780142Y42608826D01*
X29780142Y42608826D01*
G37*
D11*
X29512500Y41910000D03*
D10*
G36*
X27905142Y42608826D02*
X27928803Y42605316D01*
X27952007Y42599504D01*
X27974529Y42591446D01*
X27996153Y42581218D01*
X28016670Y42568921D01*
X28035883Y42554671D01*
X28053607Y42538607D01*
X28069671Y42520883D01*
X28083921Y42501670D01*
X28096218Y42481153D01*
X28106446Y42459529D01*
X28114504Y42437007D01*
X28120316Y42413803D01*
X28123826Y42390142D01*
X28125000Y42366250D01*
X28125000Y41453750D01*
X28123826Y41429858D01*
X28120316Y41406197D01*
X28114504Y41382993D01*
X28106446Y41360471D01*
X28096218Y41338847D01*
X28083921Y41318330D01*
X28069671Y41299117D01*
X28053607Y41281393D01*
X28035883Y41265329D01*
X28016670Y41251079D01*
X27996153Y41238782D01*
X27974529Y41228554D01*
X27952007Y41220496D01*
X27928803Y41214684D01*
X27905142Y41211174D01*
X27881250Y41210000D01*
X27393750Y41210000D01*
X27369858Y41211174D01*
X27346197Y41214684D01*
X27322993Y41220496D01*
X27300471Y41228554D01*
X27278847Y41238782D01*
X27258330Y41251079D01*
X27239117Y41265329D01*
X27221393Y41281393D01*
X27205329Y41299117D01*
X27191079Y41318330D01*
X27178782Y41338847D01*
X27168554Y41360471D01*
X27160496Y41382993D01*
X27154684Y41406197D01*
X27151174Y41429858D01*
X27150000Y41453750D01*
X27150000Y42366250D01*
X27151174Y42390142D01*
X27154684Y42413803D01*
X27160496Y42437007D01*
X27168554Y42459529D01*
X27178782Y42481153D01*
X27191079Y42501670D01*
X27205329Y42520883D01*
X27221393Y42538607D01*
X27239117Y42554671D01*
X27258330Y42568921D01*
X27278847Y42581218D01*
X27300471Y42591446D01*
X27322993Y42599504D01*
X27346197Y42605316D01*
X27369858Y42608826D01*
X27393750Y42610000D01*
X27881250Y42610000D01*
X27905142Y42608826D01*
X27905142Y42608826D01*
G37*
D11*
X27637500Y41910000D03*
G04 #@! TD*
D13*
G04 #@! TO.C,C7*
X38205000Y8890000D03*
X41805000Y8890000D03*
G04 #@! TD*
D10*
G04 #@! TO.C,C1*
G36*
X19620142Y23558826D02*
X19643803Y23555316D01*
X19667007Y23549504D01*
X19689529Y23541446D01*
X19711153Y23531218D01*
X19731670Y23518921D01*
X19750883Y23504671D01*
X19768607Y23488607D01*
X19784671Y23470883D01*
X19798921Y23451670D01*
X19811218Y23431153D01*
X19821446Y23409529D01*
X19829504Y23387007D01*
X19835316Y23363803D01*
X19838826Y23340142D01*
X19840000Y23316250D01*
X19840000Y22403750D01*
X19838826Y22379858D01*
X19835316Y22356197D01*
X19829504Y22332993D01*
X19821446Y22310471D01*
X19811218Y22288847D01*
X19798921Y22268330D01*
X19784671Y22249117D01*
X19768607Y22231393D01*
X19750883Y22215329D01*
X19731670Y22201079D01*
X19711153Y22188782D01*
X19689529Y22178554D01*
X19667007Y22170496D01*
X19643803Y22164684D01*
X19620142Y22161174D01*
X19596250Y22160000D01*
X19108750Y22160000D01*
X19084858Y22161174D01*
X19061197Y22164684D01*
X19037993Y22170496D01*
X19015471Y22178554D01*
X18993847Y22188782D01*
X18973330Y22201079D01*
X18954117Y22215329D01*
X18936393Y22231393D01*
X18920329Y22249117D01*
X18906079Y22268330D01*
X18893782Y22288847D01*
X18883554Y22310471D01*
X18875496Y22332993D01*
X18869684Y22356197D01*
X18866174Y22379858D01*
X18865000Y22403750D01*
X18865000Y23316250D01*
X18866174Y23340142D01*
X18869684Y23363803D01*
X18875496Y23387007D01*
X18883554Y23409529D01*
X18893782Y23431153D01*
X18906079Y23451670D01*
X18920329Y23470883D01*
X18936393Y23488607D01*
X18954117Y23504671D01*
X18973330Y23518921D01*
X18993847Y23531218D01*
X19015471Y23541446D01*
X19037993Y23549504D01*
X19061197Y23555316D01*
X19084858Y23558826D01*
X19108750Y23560000D01*
X19596250Y23560000D01*
X19620142Y23558826D01*
X19620142Y23558826D01*
G37*
D11*
X19352500Y22860000D03*
D10*
G36*
X17745142Y23558826D02*
X17768803Y23555316D01*
X17792007Y23549504D01*
X17814529Y23541446D01*
X17836153Y23531218D01*
X17856670Y23518921D01*
X17875883Y23504671D01*
X17893607Y23488607D01*
X17909671Y23470883D01*
X17923921Y23451670D01*
X17936218Y23431153D01*
X17946446Y23409529D01*
X17954504Y23387007D01*
X17960316Y23363803D01*
X17963826Y23340142D01*
X17965000Y23316250D01*
X17965000Y22403750D01*
X17963826Y22379858D01*
X17960316Y22356197D01*
X17954504Y22332993D01*
X17946446Y22310471D01*
X17936218Y22288847D01*
X17923921Y22268330D01*
X17909671Y22249117D01*
X17893607Y22231393D01*
X17875883Y22215329D01*
X17856670Y22201079D01*
X17836153Y22188782D01*
X17814529Y22178554D01*
X17792007Y22170496D01*
X17768803Y22164684D01*
X17745142Y22161174D01*
X17721250Y22160000D01*
X17233750Y22160000D01*
X17209858Y22161174D01*
X17186197Y22164684D01*
X17162993Y22170496D01*
X17140471Y22178554D01*
X17118847Y22188782D01*
X17098330Y22201079D01*
X17079117Y22215329D01*
X17061393Y22231393D01*
X17045329Y22249117D01*
X17031079Y22268330D01*
X17018782Y22288847D01*
X17008554Y22310471D01*
X17000496Y22332993D01*
X16994684Y22356197D01*
X16991174Y22379858D01*
X16990000Y22403750D01*
X16990000Y23316250D01*
X16991174Y23340142D01*
X16994684Y23363803D01*
X17000496Y23387007D01*
X17008554Y23409529D01*
X17018782Y23431153D01*
X17031079Y23451670D01*
X17045329Y23470883D01*
X17061393Y23488607D01*
X17079117Y23504671D01*
X17098330Y23518921D01*
X17118847Y23531218D01*
X17140471Y23541446D01*
X17162993Y23549504D01*
X17186197Y23555316D01*
X17209858Y23558826D01*
X17233750Y23560000D01*
X17721250Y23560000D01*
X17745142Y23558826D01*
X17745142Y23558826D01*
G37*
D11*
X17477500Y22860000D03*
G04 #@! TD*
D10*
G04 #@! TO.C,C2*
G36*
X18895142Y19838826D02*
X18918803Y19835316D01*
X18942007Y19829504D01*
X18964529Y19821446D01*
X18986153Y19811218D01*
X19006670Y19798921D01*
X19025883Y19784671D01*
X19043607Y19768607D01*
X19059671Y19750883D01*
X19073921Y19731670D01*
X19086218Y19711153D01*
X19096446Y19689529D01*
X19104504Y19667007D01*
X19110316Y19643803D01*
X19113826Y19620142D01*
X19115000Y19596250D01*
X19115000Y19108750D01*
X19113826Y19084858D01*
X19110316Y19061197D01*
X19104504Y19037993D01*
X19096446Y19015471D01*
X19086218Y18993847D01*
X19073921Y18973330D01*
X19059671Y18954117D01*
X19043607Y18936393D01*
X19025883Y18920329D01*
X19006670Y18906079D01*
X18986153Y18893782D01*
X18964529Y18883554D01*
X18942007Y18875496D01*
X18918803Y18869684D01*
X18895142Y18866174D01*
X18871250Y18865000D01*
X17958750Y18865000D01*
X17934858Y18866174D01*
X17911197Y18869684D01*
X17887993Y18875496D01*
X17865471Y18883554D01*
X17843847Y18893782D01*
X17823330Y18906079D01*
X17804117Y18920329D01*
X17786393Y18936393D01*
X17770329Y18954117D01*
X17756079Y18973330D01*
X17743782Y18993847D01*
X17733554Y19015471D01*
X17725496Y19037993D01*
X17719684Y19061197D01*
X17716174Y19084858D01*
X17715000Y19108750D01*
X17715000Y19596250D01*
X17716174Y19620142D01*
X17719684Y19643803D01*
X17725496Y19667007D01*
X17733554Y19689529D01*
X17743782Y19711153D01*
X17756079Y19731670D01*
X17770329Y19750883D01*
X17786393Y19768607D01*
X17804117Y19784671D01*
X17823330Y19798921D01*
X17843847Y19811218D01*
X17865471Y19821446D01*
X17887993Y19829504D01*
X17911197Y19835316D01*
X17934858Y19838826D01*
X17958750Y19840000D01*
X18871250Y19840000D01*
X18895142Y19838826D01*
X18895142Y19838826D01*
G37*
D11*
X18415000Y19352500D03*
D10*
G36*
X18895142Y17963826D02*
X18918803Y17960316D01*
X18942007Y17954504D01*
X18964529Y17946446D01*
X18986153Y17936218D01*
X19006670Y17923921D01*
X19025883Y17909671D01*
X19043607Y17893607D01*
X19059671Y17875883D01*
X19073921Y17856670D01*
X19086218Y17836153D01*
X19096446Y17814529D01*
X19104504Y17792007D01*
X19110316Y17768803D01*
X19113826Y17745142D01*
X19115000Y17721250D01*
X19115000Y17233750D01*
X19113826Y17209858D01*
X19110316Y17186197D01*
X19104504Y17162993D01*
X19096446Y17140471D01*
X19086218Y17118847D01*
X19073921Y17098330D01*
X19059671Y17079117D01*
X19043607Y17061393D01*
X19025883Y17045329D01*
X19006670Y17031079D01*
X18986153Y17018782D01*
X18964529Y17008554D01*
X18942007Y17000496D01*
X18918803Y16994684D01*
X18895142Y16991174D01*
X18871250Y16990000D01*
X17958750Y16990000D01*
X17934858Y16991174D01*
X17911197Y16994684D01*
X17887993Y17000496D01*
X17865471Y17008554D01*
X17843847Y17018782D01*
X17823330Y17031079D01*
X17804117Y17045329D01*
X17786393Y17061393D01*
X17770329Y17079117D01*
X17756079Y17098330D01*
X17743782Y17118847D01*
X17733554Y17140471D01*
X17725496Y17162993D01*
X17719684Y17186197D01*
X17716174Y17209858D01*
X17715000Y17233750D01*
X17715000Y17721250D01*
X17716174Y17745142D01*
X17719684Y17768803D01*
X17725496Y17792007D01*
X17733554Y17814529D01*
X17743782Y17836153D01*
X17756079Y17856670D01*
X17770329Y17875883D01*
X17786393Y17893607D01*
X17804117Y17909671D01*
X17823330Y17923921D01*
X17843847Y17936218D01*
X17865471Y17946446D01*
X17887993Y17954504D01*
X17911197Y17960316D01*
X17934858Y17963826D01*
X17958750Y17965000D01*
X18871250Y17965000D01*
X18895142Y17963826D01*
X18895142Y17963826D01*
G37*
D11*
X18415000Y17477500D03*
G04 #@! TD*
D10*
G04 #@! TO.C,C3*
G36*
X17745142Y14668826D02*
X17768803Y14665316D01*
X17792007Y14659504D01*
X17814529Y14651446D01*
X17836153Y14641218D01*
X17856670Y14628921D01*
X17875883Y14614671D01*
X17893607Y14598607D01*
X17909671Y14580883D01*
X17923921Y14561670D01*
X17936218Y14541153D01*
X17946446Y14519529D01*
X17954504Y14497007D01*
X17960316Y14473803D01*
X17963826Y14450142D01*
X17965000Y14426250D01*
X17965000Y13513750D01*
X17963826Y13489858D01*
X17960316Y13466197D01*
X17954504Y13442993D01*
X17946446Y13420471D01*
X17936218Y13398847D01*
X17923921Y13378330D01*
X17909671Y13359117D01*
X17893607Y13341393D01*
X17875883Y13325329D01*
X17856670Y13311079D01*
X17836153Y13298782D01*
X17814529Y13288554D01*
X17792007Y13280496D01*
X17768803Y13274684D01*
X17745142Y13271174D01*
X17721250Y13270000D01*
X17233750Y13270000D01*
X17209858Y13271174D01*
X17186197Y13274684D01*
X17162993Y13280496D01*
X17140471Y13288554D01*
X17118847Y13298782D01*
X17098330Y13311079D01*
X17079117Y13325329D01*
X17061393Y13341393D01*
X17045329Y13359117D01*
X17031079Y13378330D01*
X17018782Y13398847D01*
X17008554Y13420471D01*
X17000496Y13442993D01*
X16994684Y13466197D01*
X16991174Y13489858D01*
X16990000Y13513750D01*
X16990000Y14426250D01*
X16991174Y14450142D01*
X16994684Y14473803D01*
X17000496Y14497007D01*
X17008554Y14519529D01*
X17018782Y14541153D01*
X17031079Y14561670D01*
X17045329Y14580883D01*
X17061393Y14598607D01*
X17079117Y14614671D01*
X17098330Y14628921D01*
X17118847Y14641218D01*
X17140471Y14651446D01*
X17162993Y14659504D01*
X17186197Y14665316D01*
X17209858Y14668826D01*
X17233750Y14670000D01*
X17721250Y14670000D01*
X17745142Y14668826D01*
X17745142Y14668826D01*
G37*
D11*
X17477500Y13970000D03*
D10*
G36*
X19620142Y14668826D02*
X19643803Y14665316D01*
X19667007Y14659504D01*
X19689529Y14651446D01*
X19711153Y14641218D01*
X19731670Y14628921D01*
X19750883Y14614671D01*
X19768607Y14598607D01*
X19784671Y14580883D01*
X19798921Y14561670D01*
X19811218Y14541153D01*
X19821446Y14519529D01*
X19829504Y14497007D01*
X19835316Y14473803D01*
X19838826Y14450142D01*
X19840000Y14426250D01*
X19840000Y13513750D01*
X19838826Y13489858D01*
X19835316Y13466197D01*
X19829504Y13442993D01*
X19821446Y13420471D01*
X19811218Y13398847D01*
X19798921Y13378330D01*
X19784671Y13359117D01*
X19768607Y13341393D01*
X19750883Y13325329D01*
X19731670Y13311079D01*
X19711153Y13298782D01*
X19689529Y13288554D01*
X19667007Y13280496D01*
X19643803Y13274684D01*
X19620142Y13271174D01*
X19596250Y13270000D01*
X19108750Y13270000D01*
X19084858Y13271174D01*
X19061197Y13274684D01*
X19037993Y13280496D01*
X19015471Y13288554D01*
X18993847Y13298782D01*
X18973330Y13311079D01*
X18954117Y13325329D01*
X18936393Y13341393D01*
X18920329Y13359117D01*
X18906079Y13378330D01*
X18893782Y13398847D01*
X18883554Y13420471D01*
X18875496Y13442993D01*
X18869684Y13466197D01*
X18866174Y13489858D01*
X18865000Y13513750D01*
X18865000Y14426250D01*
X18866174Y14450142D01*
X18869684Y14473803D01*
X18875496Y14497007D01*
X18883554Y14519529D01*
X18893782Y14541153D01*
X18906079Y14561670D01*
X18920329Y14580883D01*
X18936393Y14598607D01*
X18954117Y14614671D01*
X18973330Y14628921D01*
X18993847Y14641218D01*
X19015471Y14651446D01*
X19037993Y14659504D01*
X19061197Y14665316D01*
X19084858Y14668826D01*
X19108750Y14670000D01*
X19596250Y14670000D01*
X19620142Y14668826D01*
X19620142Y14668826D01*
G37*
D11*
X19352500Y13970000D03*
G04 #@! TD*
D10*
G04 #@! TO.C,C4*
G36*
X17620903Y45148826D02*
X17644564Y45145316D01*
X17667768Y45139504D01*
X17690290Y45131446D01*
X17711914Y45121218D01*
X17732431Y45108921D01*
X17751644Y45094671D01*
X17769368Y45078607D01*
X17785432Y45060883D01*
X17799682Y45041670D01*
X17811979Y45021153D01*
X17822207Y44999529D01*
X17830265Y44977007D01*
X17836077Y44953803D01*
X17839587Y44930142D01*
X17840761Y44906250D01*
X17840761Y43993750D01*
X17839587Y43969858D01*
X17836077Y43946197D01*
X17830265Y43922993D01*
X17822207Y43900471D01*
X17811979Y43878847D01*
X17799682Y43858330D01*
X17785432Y43839117D01*
X17769368Y43821393D01*
X17751644Y43805329D01*
X17732431Y43791079D01*
X17711914Y43778782D01*
X17690290Y43768554D01*
X17667768Y43760496D01*
X17644564Y43754684D01*
X17620903Y43751174D01*
X17597011Y43750000D01*
X17109511Y43750000D01*
X17085619Y43751174D01*
X17061958Y43754684D01*
X17038754Y43760496D01*
X17016232Y43768554D01*
X16994608Y43778782D01*
X16974091Y43791079D01*
X16954878Y43805329D01*
X16937154Y43821393D01*
X16921090Y43839117D01*
X16906840Y43858330D01*
X16894543Y43878847D01*
X16884315Y43900471D01*
X16876257Y43922993D01*
X16870445Y43946197D01*
X16866935Y43969858D01*
X16865761Y43993750D01*
X16865761Y44906250D01*
X16866935Y44930142D01*
X16870445Y44953803D01*
X16876257Y44977007D01*
X16884315Y44999529D01*
X16894543Y45021153D01*
X16906840Y45041670D01*
X16921090Y45060883D01*
X16937154Y45078607D01*
X16954878Y45094671D01*
X16974091Y45108921D01*
X16994608Y45121218D01*
X17016232Y45131446D01*
X17038754Y45139504D01*
X17061958Y45145316D01*
X17085619Y45148826D01*
X17109511Y45150000D01*
X17597011Y45150000D01*
X17620903Y45148826D01*
X17620903Y45148826D01*
G37*
D11*
X17353261Y44450000D03*
D10*
G36*
X19495903Y45148826D02*
X19519564Y45145316D01*
X19542768Y45139504D01*
X19565290Y45131446D01*
X19586914Y45121218D01*
X19607431Y45108921D01*
X19626644Y45094671D01*
X19644368Y45078607D01*
X19660432Y45060883D01*
X19674682Y45041670D01*
X19686979Y45021153D01*
X19697207Y44999529D01*
X19705265Y44977007D01*
X19711077Y44953803D01*
X19714587Y44930142D01*
X19715761Y44906250D01*
X19715761Y43993750D01*
X19714587Y43969858D01*
X19711077Y43946197D01*
X19705265Y43922993D01*
X19697207Y43900471D01*
X19686979Y43878847D01*
X19674682Y43858330D01*
X19660432Y43839117D01*
X19644368Y43821393D01*
X19626644Y43805329D01*
X19607431Y43791079D01*
X19586914Y43778782D01*
X19565290Y43768554D01*
X19542768Y43760496D01*
X19519564Y43754684D01*
X19495903Y43751174D01*
X19472011Y43750000D01*
X18984511Y43750000D01*
X18960619Y43751174D01*
X18936958Y43754684D01*
X18913754Y43760496D01*
X18891232Y43768554D01*
X18869608Y43778782D01*
X18849091Y43791079D01*
X18829878Y43805329D01*
X18812154Y43821393D01*
X18796090Y43839117D01*
X18781840Y43858330D01*
X18769543Y43878847D01*
X18759315Y43900471D01*
X18751257Y43922993D01*
X18745445Y43946197D01*
X18741935Y43969858D01*
X18740761Y43993750D01*
X18740761Y44906250D01*
X18741935Y44930142D01*
X18745445Y44953803D01*
X18751257Y44977007D01*
X18759315Y44999529D01*
X18769543Y45021153D01*
X18781840Y45041670D01*
X18796090Y45060883D01*
X18812154Y45078607D01*
X18829878Y45094671D01*
X18849091Y45108921D01*
X18869608Y45121218D01*
X18891232Y45131446D01*
X18913754Y45139504D01*
X18936958Y45145316D01*
X18960619Y45148826D01*
X18984511Y45150000D01*
X19472011Y45150000D01*
X19495903Y45148826D01*
X19495903Y45148826D01*
G37*
D11*
X19228261Y44450000D03*
G04 #@! TD*
D10*
G04 #@! TO.C,C5*
G36*
X18770903Y39553826D02*
X18794564Y39550316D01*
X18817768Y39544504D01*
X18840290Y39536446D01*
X18861914Y39526218D01*
X18882431Y39513921D01*
X18901644Y39499671D01*
X18919368Y39483607D01*
X18935432Y39465883D01*
X18949682Y39446670D01*
X18961979Y39426153D01*
X18972207Y39404529D01*
X18980265Y39382007D01*
X18986077Y39358803D01*
X18989587Y39335142D01*
X18990761Y39311250D01*
X18990761Y38823750D01*
X18989587Y38799858D01*
X18986077Y38776197D01*
X18980265Y38752993D01*
X18972207Y38730471D01*
X18961979Y38708847D01*
X18949682Y38688330D01*
X18935432Y38669117D01*
X18919368Y38651393D01*
X18901644Y38635329D01*
X18882431Y38621079D01*
X18861914Y38608782D01*
X18840290Y38598554D01*
X18817768Y38590496D01*
X18794564Y38584684D01*
X18770903Y38581174D01*
X18747011Y38580000D01*
X17834511Y38580000D01*
X17810619Y38581174D01*
X17786958Y38584684D01*
X17763754Y38590496D01*
X17741232Y38598554D01*
X17719608Y38608782D01*
X17699091Y38621079D01*
X17679878Y38635329D01*
X17662154Y38651393D01*
X17646090Y38669117D01*
X17631840Y38688330D01*
X17619543Y38708847D01*
X17609315Y38730471D01*
X17601257Y38752993D01*
X17595445Y38776197D01*
X17591935Y38799858D01*
X17590761Y38823750D01*
X17590761Y39311250D01*
X17591935Y39335142D01*
X17595445Y39358803D01*
X17601257Y39382007D01*
X17609315Y39404529D01*
X17619543Y39426153D01*
X17631840Y39446670D01*
X17646090Y39465883D01*
X17662154Y39483607D01*
X17679878Y39499671D01*
X17699091Y39513921D01*
X17719608Y39526218D01*
X17741232Y39536446D01*
X17763754Y39544504D01*
X17786958Y39550316D01*
X17810619Y39553826D01*
X17834511Y39555000D01*
X18747011Y39555000D01*
X18770903Y39553826D01*
X18770903Y39553826D01*
G37*
D11*
X18290761Y39067500D03*
D10*
G36*
X18770903Y41428826D02*
X18794564Y41425316D01*
X18817768Y41419504D01*
X18840290Y41411446D01*
X18861914Y41401218D01*
X18882431Y41388921D01*
X18901644Y41374671D01*
X18919368Y41358607D01*
X18935432Y41340883D01*
X18949682Y41321670D01*
X18961979Y41301153D01*
X18972207Y41279529D01*
X18980265Y41257007D01*
X18986077Y41233803D01*
X18989587Y41210142D01*
X18990761Y41186250D01*
X18990761Y40698750D01*
X18989587Y40674858D01*
X18986077Y40651197D01*
X18980265Y40627993D01*
X18972207Y40605471D01*
X18961979Y40583847D01*
X18949682Y40563330D01*
X18935432Y40544117D01*
X18919368Y40526393D01*
X18901644Y40510329D01*
X18882431Y40496079D01*
X18861914Y40483782D01*
X18840290Y40473554D01*
X18817768Y40465496D01*
X18794564Y40459684D01*
X18770903Y40456174D01*
X18747011Y40455000D01*
X17834511Y40455000D01*
X17810619Y40456174D01*
X17786958Y40459684D01*
X17763754Y40465496D01*
X17741232Y40473554D01*
X17719608Y40483782D01*
X17699091Y40496079D01*
X17679878Y40510329D01*
X17662154Y40526393D01*
X17646090Y40544117D01*
X17631840Y40563330D01*
X17619543Y40583847D01*
X17609315Y40605471D01*
X17601257Y40627993D01*
X17595445Y40651197D01*
X17591935Y40674858D01*
X17590761Y40698750D01*
X17590761Y41186250D01*
X17591935Y41210142D01*
X17595445Y41233803D01*
X17601257Y41257007D01*
X17609315Y41279529D01*
X17619543Y41301153D01*
X17631840Y41321670D01*
X17646090Y41340883D01*
X17662154Y41358607D01*
X17679878Y41374671D01*
X17699091Y41388921D01*
X17719608Y41401218D01*
X17741232Y41411446D01*
X17763754Y41419504D01*
X17786958Y41425316D01*
X17810619Y41428826D01*
X17834511Y41430000D01*
X18747011Y41430000D01*
X18770903Y41428826D01*
X18770903Y41428826D01*
G37*
D11*
X18290761Y40942500D03*
G04 #@! TD*
D10*
G04 #@! TO.C,C6*
G36*
X19495903Y36258826D02*
X19519564Y36255316D01*
X19542768Y36249504D01*
X19565290Y36241446D01*
X19586914Y36231218D01*
X19607431Y36218921D01*
X19626644Y36204671D01*
X19644368Y36188607D01*
X19660432Y36170883D01*
X19674682Y36151670D01*
X19686979Y36131153D01*
X19697207Y36109529D01*
X19705265Y36087007D01*
X19711077Y36063803D01*
X19714587Y36040142D01*
X19715761Y36016250D01*
X19715761Y35103750D01*
X19714587Y35079858D01*
X19711077Y35056197D01*
X19705265Y35032993D01*
X19697207Y35010471D01*
X19686979Y34988847D01*
X19674682Y34968330D01*
X19660432Y34949117D01*
X19644368Y34931393D01*
X19626644Y34915329D01*
X19607431Y34901079D01*
X19586914Y34888782D01*
X19565290Y34878554D01*
X19542768Y34870496D01*
X19519564Y34864684D01*
X19495903Y34861174D01*
X19472011Y34860000D01*
X18984511Y34860000D01*
X18960619Y34861174D01*
X18936958Y34864684D01*
X18913754Y34870496D01*
X18891232Y34878554D01*
X18869608Y34888782D01*
X18849091Y34901079D01*
X18829878Y34915329D01*
X18812154Y34931393D01*
X18796090Y34949117D01*
X18781840Y34968330D01*
X18769543Y34988847D01*
X18759315Y35010471D01*
X18751257Y35032993D01*
X18745445Y35056197D01*
X18741935Y35079858D01*
X18740761Y35103750D01*
X18740761Y36016250D01*
X18741935Y36040142D01*
X18745445Y36063803D01*
X18751257Y36087007D01*
X18759315Y36109529D01*
X18769543Y36131153D01*
X18781840Y36151670D01*
X18796090Y36170883D01*
X18812154Y36188607D01*
X18829878Y36204671D01*
X18849091Y36218921D01*
X18869608Y36231218D01*
X18891232Y36241446D01*
X18913754Y36249504D01*
X18936958Y36255316D01*
X18960619Y36258826D01*
X18984511Y36260000D01*
X19472011Y36260000D01*
X19495903Y36258826D01*
X19495903Y36258826D01*
G37*
D11*
X19228261Y35560000D03*
D10*
G36*
X17620903Y36258826D02*
X17644564Y36255316D01*
X17667768Y36249504D01*
X17690290Y36241446D01*
X17711914Y36231218D01*
X17732431Y36218921D01*
X17751644Y36204671D01*
X17769368Y36188607D01*
X17785432Y36170883D01*
X17799682Y36151670D01*
X17811979Y36131153D01*
X17822207Y36109529D01*
X17830265Y36087007D01*
X17836077Y36063803D01*
X17839587Y36040142D01*
X17840761Y36016250D01*
X17840761Y35103750D01*
X17839587Y35079858D01*
X17836077Y35056197D01*
X17830265Y35032993D01*
X17822207Y35010471D01*
X17811979Y34988847D01*
X17799682Y34968330D01*
X17785432Y34949117D01*
X17769368Y34931393D01*
X17751644Y34915329D01*
X17732431Y34901079D01*
X17711914Y34888782D01*
X17690290Y34878554D01*
X17667768Y34870496D01*
X17644564Y34864684D01*
X17620903Y34861174D01*
X17597011Y34860000D01*
X17109511Y34860000D01*
X17085619Y34861174D01*
X17061958Y34864684D01*
X17038754Y34870496D01*
X17016232Y34878554D01*
X16994608Y34888782D01*
X16974091Y34901079D01*
X16954878Y34915329D01*
X16937154Y34931393D01*
X16921090Y34949117D01*
X16906840Y34968330D01*
X16894543Y34988847D01*
X16884315Y35010471D01*
X16876257Y35032993D01*
X16870445Y35056197D01*
X16866935Y35079858D01*
X16865761Y35103750D01*
X16865761Y36016250D01*
X16866935Y36040142D01*
X16870445Y36063803D01*
X16876257Y36087007D01*
X16884315Y36109529D01*
X16894543Y36131153D01*
X16906840Y36151670D01*
X16921090Y36170883D01*
X16937154Y36188607D01*
X16954878Y36204671D01*
X16974091Y36218921D01*
X16994608Y36231218D01*
X17016232Y36241446D01*
X17038754Y36249504D01*
X17061958Y36255316D01*
X17085619Y36258826D01*
X17109511Y36260000D01*
X17597011Y36260000D01*
X17620903Y36258826D01*
X17620903Y36258826D01*
G37*
D11*
X17353261Y35560000D03*
G04 #@! TD*
D10*
G04 #@! TO.C,C8*
G36*
X24702903Y24743940D02*
X24726564Y24740430D01*
X24749768Y24734618D01*
X24772290Y24726560D01*
X24793914Y24716332D01*
X24814431Y24704035D01*
X24833644Y24689785D01*
X24851368Y24673721D01*
X24867432Y24655997D01*
X24881682Y24636784D01*
X24893979Y24616267D01*
X24904207Y24594643D01*
X24912265Y24572121D01*
X24918077Y24548917D01*
X24921587Y24525256D01*
X24922761Y24501364D01*
X24922761Y23588864D01*
X24921587Y23564972D01*
X24918077Y23541311D01*
X24912265Y23518107D01*
X24904207Y23495585D01*
X24893979Y23473961D01*
X24881682Y23453444D01*
X24867432Y23434231D01*
X24851368Y23416507D01*
X24833644Y23400443D01*
X24814431Y23386193D01*
X24793914Y23373896D01*
X24772290Y23363668D01*
X24749768Y23355610D01*
X24726564Y23349798D01*
X24702903Y23346288D01*
X24679011Y23345114D01*
X24191511Y23345114D01*
X24167619Y23346288D01*
X24143958Y23349798D01*
X24120754Y23355610D01*
X24098232Y23363668D01*
X24076608Y23373896D01*
X24056091Y23386193D01*
X24036878Y23400443D01*
X24019154Y23416507D01*
X24003090Y23434231D01*
X23988840Y23453444D01*
X23976543Y23473961D01*
X23966315Y23495585D01*
X23958257Y23518107D01*
X23952445Y23541311D01*
X23948935Y23564972D01*
X23947761Y23588864D01*
X23947761Y24501364D01*
X23948935Y24525256D01*
X23952445Y24548917D01*
X23958257Y24572121D01*
X23966315Y24594643D01*
X23976543Y24616267D01*
X23988840Y24636784D01*
X24003090Y24655997D01*
X24019154Y24673721D01*
X24036878Y24689785D01*
X24056091Y24704035D01*
X24076608Y24716332D01*
X24098232Y24726560D01*
X24120754Y24734618D01*
X24143958Y24740430D01*
X24167619Y24743940D01*
X24191511Y24745114D01*
X24679011Y24745114D01*
X24702903Y24743940D01*
X24702903Y24743940D01*
G37*
D11*
X24435261Y24045114D03*
D10*
G36*
X22827903Y24743940D02*
X22851564Y24740430D01*
X22874768Y24734618D01*
X22897290Y24726560D01*
X22918914Y24716332D01*
X22939431Y24704035D01*
X22958644Y24689785D01*
X22976368Y24673721D01*
X22992432Y24655997D01*
X23006682Y24636784D01*
X23018979Y24616267D01*
X23029207Y24594643D01*
X23037265Y24572121D01*
X23043077Y24548917D01*
X23046587Y24525256D01*
X23047761Y24501364D01*
X23047761Y23588864D01*
X23046587Y23564972D01*
X23043077Y23541311D01*
X23037265Y23518107D01*
X23029207Y23495585D01*
X23018979Y23473961D01*
X23006682Y23453444D01*
X22992432Y23434231D01*
X22976368Y23416507D01*
X22958644Y23400443D01*
X22939431Y23386193D01*
X22918914Y23373896D01*
X22897290Y23363668D01*
X22874768Y23355610D01*
X22851564Y23349798D01*
X22827903Y23346288D01*
X22804011Y23345114D01*
X22316511Y23345114D01*
X22292619Y23346288D01*
X22268958Y23349798D01*
X22245754Y23355610D01*
X22223232Y23363668D01*
X22201608Y23373896D01*
X22181091Y23386193D01*
X22161878Y23400443D01*
X22144154Y23416507D01*
X22128090Y23434231D01*
X22113840Y23453444D01*
X22101543Y23473961D01*
X22091315Y23495585D01*
X22083257Y23518107D01*
X22077445Y23541311D01*
X22073935Y23564972D01*
X22072761Y23588864D01*
X22072761Y24501364D01*
X22073935Y24525256D01*
X22077445Y24548917D01*
X22083257Y24572121D01*
X22091315Y24594643D01*
X22101543Y24616267D01*
X22113840Y24636784D01*
X22128090Y24655997D01*
X22144154Y24673721D01*
X22161878Y24689785D01*
X22181091Y24704035D01*
X22201608Y24716332D01*
X22223232Y24726560D01*
X22245754Y24734618D01*
X22268958Y24740430D01*
X22292619Y24743940D01*
X22316511Y24745114D01*
X22804011Y24745114D01*
X22827903Y24743940D01*
X22827903Y24743940D01*
G37*
D11*
X22560261Y24045114D03*
G04 #@! TD*
D10*
G04 #@! TO.C,C9*
G36*
X22825142Y46418826D02*
X22848803Y46415316D01*
X22872007Y46409504D01*
X22894529Y46401446D01*
X22916153Y46391218D01*
X22936670Y46378921D01*
X22955883Y46364671D01*
X22973607Y46348607D01*
X22989671Y46330883D01*
X23003921Y46311670D01*
X23016218Y46291153D01*
X23026446Y46269529D01*
X23034504Y46247007D01*
X23040316Y46223803D01*
X23043826Y46200142D01*
X23045000Y46176250D01*
X23045000Y45263750D01*
X23043826Y45239858D01*
X23040316Y45216197D01*
X23034504Y45192993D01*
X23026446Y45170471D01*
X23016218Y45148847D01*
X23003921Y45128330D01*
X22989671Y45109117D01*
X22973607Y45091393D01*
X22955883Y45075329D01*
X22936670Y45061079D01*
X22916153Y45048782D01*
X22894529Y45038554D01*
X22872007Y45030496D01*
X22848803Y45024684D01*
X22825142Y45021174D01*
X22801250Y45020000D01*
X22313750Y45020000D01*
X22289858Y45021174D01*
X22266197Y45024684D01*
X22242993Y45030496D01*
X22220471Y45038554D01*
X22198847Y45048782D01*
X22178330Y45061079D01*
X22159117Y45075329D01*
X22141393Y45091393D01*
X22125329Y45109117D01*
X22111079Y45128330D01*
X22098782Y45148847D01*
X22088554Y45170471D01*
X22080496Y45192993D01*
X22074684Y45216197D01*
X22071174Y45239858D01*
X22070000Y45263750D01*
X22070000Y46176250D01*
X22071174Y46200142D01*
X22074684Y46223803D01*
X22080496Y46247007D01*
X22088554Y46269529D01*
X22098782Y46291153D01*
X22111079Y46311670D01*
X22125329Y46330883D01*
X22141393Y46348607D01*
X22159117Y46364671D01*
X22178330Y46378921D01*
X22198847Y46391218D01*
X22220471Y46401446D01*
X22242993Y46409504D01*
X22266197Y46415316D01*
X22289858Y46418826D01*
X22313750Y46420000D01*
X22801250Y46420000D01*
X22825142Y46418826D01*
X22825142Y46418826D01*
G37*
D11*
X22557500Y45720000D03*
D10*
G36*
X24700142Y46418826D02*
X24723803Y46415316D01*
X24747007Y46409504D01*
X24769529Y46401446D01*
X24791153Y46391218D01*
X24811670Y46378921D01*
X24830883Y46364671D01*
X24848607Y46348607D01*
X24864671Y46330883D01*
X24878921Y46311670D01*
X24891218Y46291153D01*
X24901446Y46269529D01*
X24909504Y46247007D01*
X24915316Y46223803D01*
X24918826Y46200142D01*
X24920000Y46176250D01*
X24920000Y45263750D01*
X24918826Y45239858D01*
X24915316Y45216197D01*
X24909504Y45192993D01*
X24901446Y45170471D01*
X24891218Y45148847D01*
X24878921Y45128330D01*
X24864671Y45109117D01*
X24848607Y45091393D01*
X24830883Y45075329D01*
X24811670Y45061079D01*
X24791153Y45048782D01*
X24769529Y45038554D01*
X24747007Y45030496D01*
X24723803Y45024684D01*
X24700142Y45021174D01*
X24676250Y45020000D01*
X24188750Y45020000D01*
X24164858Y45021174D01*
X24141197Y45024684D01*
X24117993Y45030496D01*
X24095471Y45038554D01*
X24073847Y45048782D01*
X24053330Y45061079D01*
X24034117Y45075329D01*
X24016393Y45091393D01*
X24000329Y45109117D01*
X23986079Y45128330D01*
X23973782Y45148847D01*
X23963554Y45170471D01*
X23955496Y45192993D01*
X23949684Y45216197D01*
X23946174Y45239858D01*
X23945000Y45263750D01*
X23945000Y46176250D01*
X23946174Y46200142D01*
X23949684Y46223803D01*
X23955496Y46247007D01*
X23963554Y46269529D01*
X23973782Y46291153D01*
X23986079Y46311670D01*
X24000329Y46330883D01*
X24016393Y46348607D01*
X24034117Y46364671D01*
X24053330Y46378921D01*
X24073847Y46391218D01*
X24095471Y46401446D01*
X24117993Y46409504D01*
X24141197Y46415316D01*
X24164858Y46418826D01*
X24188750Y46420000D01*
X24676250Y46420000D01*
X24700142Y46418826D01*
X24700142Y46418826D01*
G37*
D11*
X24432500Y45720000D03*
G04 #@! TD*
D10*
G04 #@! TO.C,D1*
G36*
X15969504Y31303796D02*
X15993773Y31300196D01*
X16017571Y31294235D01*
X16040671Y31285970D01*
X16062849Y31275480D01*
X16083893Y31262867D01*
X16103598Y31248253D01*
X16121777Y31231777D01*
X16138253Y31213598D01*
X16152867Y31193893D01*
X16165480Y31172849D01*
X16175970Y31150671D01*
X16184235Y31127571D01*
X16190196Y31103773D01*
X16193796Y31079504D01*
X16195000Y31055000D01*
X16195000Y29905000D01*
X16193796Y29880496D01*
X16190196Y29856227D01*
X16184235Y29832429D01*
X16175970Y29809329D01*
X16165480Y29787151D01*
X16152867Y29766107D01*
X16138253Y29746402D01*
X16121777Y29728223D01*
X16103598Y29711747D01*
X16083893Y29697133D01*
X16062849Y29684520D01*
X16040671Y29674030D01*
X16017571Y29665765D01*
X15993773Y29659804D01*
X15969504Y29656204D01*
X15945000Y29655000D01*
X14845000Y29655000D01*
X14820496Y29656204D01*
X14796227Y29659804D01*
X14772429Y29665765D01*
X14749329Y29674030D01*
X14727151Y29684520D01*
X14706107Y29697133D01*
X14686402Y29711747D01*
X14668223Y29728223D01*
X14651747Y29746402D01*
X14637133Y29766107D01*
X14624520Y29787151D01*
X14614030Y29809329D01*
X14605765Y29832429D01*
X14599804Y29856227D01*
X14596204Y29880496D01*
X14595000Y29905000D01*
X14595000Y31055000D01*
X14596204Y31079504D01*
X14599804Y31103773D01*
X14605765Y31127571D01*
X14614030Y31150671D01*
X14624520Y31172849D01*
X14637133Y31193893D01*
X14651747Y31213598D01*
X14668223Y31231777D01*
X14686402Y31248253D01*
X14706107Y31262867D01*
X14727151Y31275480D01*
X14749329Y31285970D01*
X14772429Y31294235D01*
X14796227Y31300196D01*
X14820496Y31303796D01*
X14845000Y31305000D01*
X15945000Y31305000D01*
X15969504Y31303796D01*
X15969504Y31303796D01*
G37*
D12*
X15395000Y30480000D03*
D10*
G36*
X13119504Y31303796D02*
X13143773Y31300196D01*
X13167571Y31294235D01*
X13190671Y31285970D01*
X13212849Y31275480D01*
X13233893Y31262867D01*
X13253598Y31248253D01*
X13271777Y31231777D01*
X13288253Y31213598D01*
X13302867Y31193893D01*
X13315480Y31172849D01*
X13325970Y31150671D01*
X13334235Y31127571D01*
X13340196Y31103773D01*
X13343796Y31079504D01*
X13345000Y31055000D01*
X13345000Y29905000D01*
X13343796Y29880496D01*
X13340196Y29856227D01*
X13334235Y29832429D01*
X13325970Y29809329D01*
X13315480Y29787151D01*
X13302867Y29766107D01*
X13288253Y29746402D01*
X13271777Y29728223D01*
X13253598Y29711747D01*
X13233893Y29697133D01*
X13212849Y29684520D01*
X13190671Y29674030D01*
X13167571Y29665765D01*
X13143773Y29659804D01*
X13119504Y29656204D01*
X13095000Y29655000D01*
X11995000Y29655000D01*
X11970496Y29656204D01*
X11946227Y29659804D01*
X11922429Y29665765D01*
X11899329Y29674030D01*
X11877151Y29684520D01*
X11856107Y29697133D01*
X11836402Y29711747D01*
X11818223Y29728223D01*
X11801747Y29746402D01*
X11787133Y29766107D01*
X11774520Y29787151D01*
X11764030Y29809329D01*
X11755765Y29832429D01*
X11749804Y29856227D01*
X11746204Y29880496D01*
X11745000Y29905000D01*
X11745000Y31055000D01*
X11746204Y31079504D01*
X11749804Y31103773D01*
X11755765Y31127571D01*
X11764030Y31150671D01*
X11774520Y31172849D01*
X11787133Y31193893D01*
X11801747Y31213598D01*
X11818223Y31231777D01*
X11836402Y31248253D01*
X11856107Y31262867D01*
X11877151Y31275480D01*
X11899329Y31285970D01*
X11922429Y31294235D01*
X11946227Y31300196D01*
X11970496Y31303796D01*
X11995000Y31305000D01*
X13095000Y31305000D01*
X13119504Y31303796D01*
X13119504Y31303796D01*
G37*
D12*
X12545000Y30480000D03*
G04 #@! TD*
D10*
G04 #@! TO.C,D2*
G36*
X13119504Y9713796D02*
X13143773Y9710196D01*
X13167571Y9704235D01*
X13190671Y9695970D01*
X13212849Y9685480D01*
X13233893Y9672867D01*
X13253598Y9658253D01*
X13271777Y9641777D01*
X13288253Y9623598D01*
X13302867Y9603893D01*
X13315480Y9582849D01*
X13325970Y9560671D01*
X13334235Y9537571D01*
X13340196Y9513773D01*
X13343796Y9489504D01*
X13345000Y9465000D01*
X13345000Y8315000D01*
X13343796Y8290496D01*
X13340196Y8266227D01*
X13334235Y8242429D01*
X13325970Y8219329D01*
X13315480Y8197151D01*
X13302867Y8176107D01*
X13288253Y8156402D01*
X13271777Y8138223D01*
X13253598Y8121747D01*
X13233893Y8107133D01*
X13212849Y8094520D01*
X13190671Y8084030D01*
X13167571Y8075765D01*
X13143773Y8069804D01*
X13119504Y8066204D01*
X13095000Y8065000D01*
X11995000Y8065000D01*
X11970496Y8066204D01*
X11946227Y8069804D01*
X11922429Y8075765D01*
X11899329Y8084030D01*
X11877151Y8094520D01*
X11856107Y8107133D01*
X11836402Y8121747D01*
X11818223Y8138223D01*
X11801747Y8156402D01*
X11787133Y8176107D01*
X11774520Y8197151D01*
X11764030Y8219329D01*
X11755765Y8242429D01*
X11749804Y8266227D01*
X11746204Y8290496D01*
X11745000Y8315000D01*
X11745000Y9465000D01*
X11746204Y9489504D01*
X11749804Y9513773D01*
X11755765Y9537571D01*
X11764030Y9560671D01*
X11774520Y9582849D01*
X11787133Y9603893D01*
X11801747Y9623598D01*
X11818223Y9641777D01*
X11836402Y9658253D01*
X11856107Y9672867D01*
X11877151Y9685480D01*
X11899329Y9695970D01*
X11922429Y9704235D01*
X11946227Y9710196D01*
X11970496Y9713796D01*
X11995000Y9715000D01*
X13095000Y9715000D01*
X13119504Y9713796D01*
X13119504Y9713796D01*
G37*
D12*
X12545000Y8890000D03*
D10*
G36*
X15969504Y9713796D02*
X15993773Y9710196D01*
X16017571Y9704235D01*
X16040671Y9695970D01*
X16062849Y9685480D01*
X16083893Y9672867D01*
X16103598Y9658253D01*
X16121777Y9641777D01*
X16138253Y9623598D01*
X16152867Y9603893D01*
X16165480Y9582849D01*
X16175970Y9560671D01*
X16184235Y9537571D01*
X16190196Y9513773D01*
X16193796Y9489504D01*
X16195000Y9465000D01*
X16195000Y8315000D01*
X16193796Y8290496D01*
X16190196Y8266227D01*
X16184235Y8242429D01*
X16175970Y8219329D01*
X16165480Y8197151D01*
X16152867Y8176107D01*
X16138253Y8156402D01*
X16121777Y8138223D01*
X16103598Y8121747D01*
X16083893Y8107133D01*
X16062849Y8094520D01*
X16040671Y8084030D01*
X16017571Y8075765D01*
X15993773Y8069804D01*
X15969504Y8066204D01*
X15945000Y8065000D01*
X14845000Y8065000D01*
X14820496Y8066204D01*
X14796227Y8069804D01*
X14772429Y8075765D01*
X14749329Y8084030D01*
X14727151Y8094520D01*
X14706107Y8107133D01*
X14686402Y8121747D01*
X14668223Y8138223D01*
X14651747Y8156402D01*
X14637133Y8176107D01*
X14624520Y8197151D01*
X14614030Y8219329D01*
X14605765Y8242429D01*
X14599804Y8266227D01*
X14596204Y8290496D01*
X14595000Y8315000D01*
X14595000Y9465000D01*
X14596204Y9489504D01*
X14599804Y9513773D01*
X14605765Y9537571D01*
X14614030Y9560671D01*
X14624520Y9582849D01*
X14637133Y9603893D01*
X14651747Y9623598D01*
X14668223Y9641777D01*
X14686402Y9658253D01*
X14706107Y9672867D01*
X14727151Y9685480D01*
X14749329Y9695970D01*
X14772429Y9704235D01*
X14796227Y9710196D01*
X14820496Y9713796D01*
X14845000Y9715000D01*
X15945000Y9715000D01*
X15969504Y9713796D01*
X15969504Y9713796D01*
G37*
D12*
X15395000Y8890000D03*
G04 #@! TD*
D14*
G04 #@! TO.C,IC1*
X22520000Y20657114D03*
X23170000Y20657114D03*
X23820000Y20657114D03*
X24470000Y20657114D03*
X24470000Y16257114D03*
X23820000Y16257114D03*
X23170000Y16257114D03*
X22520000Y16257114D03*
G04 #@! TD*
G04 #@! TO.C,IC2*
X22520000Y37805000D03*
X23170000Y37805000D03*
X23820000Y37805000D03*
X24470000Y37805000D03*
X24470000Y42205000D03*
X23820000Y42205000D03*
X23170000Y42205000D03*
X22520000Y42205000D03*
G04 #@! TD*
D10*
G04 #@! TO.C,R2*
G36*
X14540142Y34988826D02*
X14563803Y34985316D01*
X14587007Y34979504D01*
X14609529Y34971446D01*
X14631153Y34961218D01*
X14651670Y34948921D01*
X14670883Y34934671D01*
X14688607Y34918607D01*
X14704671Y34900883D01*
X14718921Y34881670D01*
X14731218Y34861153D01*
X14741446Y34839529D01*
X14749504Y34817007D01*
X14755316Y34793803D01*
X14758826Y34770142D01*
X14760000Y34746250D01*
X14760000Y33833750D01*
X14758826Y33809858D01*
X14755316Y33786197D01*
X14749504Y33762993D01*
X14741446Y33740471D01*
X14731218Y33718847D01*
X14718921Y33698330D01*
X14704671Y33679117D01*
X14688607Y33661393D01*
X14670883Y33645329D01*
X14651670Y33631079D01*
X14631153Y33618782D01*
X14609529Y33608554D01*
X14587007Y33600496D01*
X14563803Y33594684D01*
X14540142Y33591174D01*
X14516250Y33590000D01*
X14028750Y33590000D01*
X14004858Y33591174D01*
X13981197Y33594684D01*
X13957993Y33600496D01*
X13935471Y33608554D01*
X13913847Y33618782D01*
X13893330Y33631079D01*
X13874117Y33645329D01*
X13856393Y33661393D01*
X13840329Y33679117D01*
X13826079Y33698330D01*
X13813782Y33718847D01*
X13803554Y33740471D01*
X13795496Y33762993D01*
X13789684Y33786197D01*
X13786174Y33809858D01*
X13785000Y33833750D01*
X13785000Y34746250D01*
X13786174Y34770142D01*
X13789684Y34793803D01*
X13795496Y34817007D01*
X13803554Y34839529D01*
X13813782Y34861153D01*
X13826079Y34881670D01*
X13840329Y34900883D01*
X13856393Y34918607D01*
X13874117Y34934671D01*
X13893330Y34948921D01*
X13913847Y34961218D01*
X13935471Y34971446D01*
X13957993Y34979504D01*
X13981197Y34985316D01*
X14004858Y34988826D01*
X14028750Y34990000D01*
X14516250Y34990000D01*
X14540142Y34988826D01*
X14540142Y34988826D01*
G37*
D11*
X14272500Y34290000D03*
D10*
G36*
X12665142Y34988826D02*
X12688803Y34985316D01*
X12712007Y34979504D01*
X12734529Y34971446D01*
X12756153Y34961218D01*
X12776670Y34948921D01*
X12795883Y34934671D01*
X12813607Y34918607D01*
X12829671Y34900883D01*
X12843921Y34881670D01*
X12856218Y34861153D01*
X12866446Y34839529D01*
X12874504Y34817007D01*
X12880316Y34793803D01*
X12883826Y34770142D01*
X12885000Y34746250D01*
X12885000Y33833750D01*
X12883826Y33809858D01*
X12880316Y33786197D01*
X12874504Y33762993D01*
X12866446Y33740471D01*
X12856218Y33718847D01*
X12843921Y33698330D01*
X12829671Y33679117D01*
X12813607Y33661393D01*
X12795883Y33645329D01*
X12776670Y33631079D01*
X12756153Y33618782D01*
X12734529Y33608554D01*
X12712007Y33600496D01*
X12688803Y33594684D01*
X12665142Y33591174D01*
X12641250Y33590000D01*
X12153750Y33590000D01*
X12129858Y33591174D01*
X12106197Y33594684D01*
X12082993Y33600496D01*
X12060471Y33608554D01*
X12038847Y33618782D01*
X12018330Y33631079D01*
X11999117Y33645329D01*
X11981393Y33661393D01*
X11965329Y33679117D01*
X11951079Y33698330D01*
X11938782Y33718847D01*
X11928554Y33740471D01*
X11920496Y33762993D01*
X11914684Y33786197D01*
X11911174Y33809858D01*
X11910000Y33833750D01*
X11910000Y34746250D01*
X11911174Y34770142D01*
X11914684Y34793803D01*
X11920496Y34817007D01*
X11928554Y34839529D01*
X11938782Y34861153D01*
X11951079Y34881670D01*
X11965329Y34900883D01*
X11981393Y34918607D01*
X11999117Y34934671D01*
X12018330Y34948921D01*
X12038847Y34961218D01*
X12060471Y34971446D01*
X12082993Y34979504D01*
X12106197Y34985316D01*
X12129858Y34988826D01*
X12153750Y34990000D01*
X12641250Y34990000D01*
X12665142Y34988826D01*
X12665142Y34988826D01*
G37*
D11*
X12397500Y34290000D03*
G04 #@! TD*
D10*
G04 #@! TO.C,R7*
G36*
X24700142Y31178826D02*
X24723803Y31175316D01*
X24747007Y31169504D01*
X24769529Y31161446D01*
X24791153Y31151218D01*
X24811670Y31138921D01*
X24830883Y31124671D01*
X24848607Y31108607D01*
X24864671Y31090883D01*
X24878921Y31071670D01*
X24891218Y31051153D01*
X24901446Y31029529D01*
X24909504Y31007007D01*
X24915316Y30983803D01*
X24918826Y30960142D01*
X24920000Y30936250D01*
X24920000Y30023750D01*
X24918826Y29999858D01*
X24915316Y29976197D01*
X24909504Y29952993D01*
X24901446Y29930471D01*
X24891218Y29908847D01*
X24878921Y29888330D01*
X24864671Y29869117D01*
X24848607Y29851393D01*
X24830883Y29835329D01*
X24811670Y29821079D01*
X24791153Y29808782D01*
X24769529Y29798554D01*
X24747007Y29790496D01*
X24723803Y29784684D01*
X24700142Y29781174D01*
X24676250Y29780000D01*
X24188750Y29780000D01*
X24164858Y29781174D01*
X24141197Y29784684D01*
X24117993Y29790496D01*
X24095471Y29798554D01*
X24073847Y29808782D01*
X24053330Y29821079D01*
X24034117Y29835329D01*
X24016393Y29851393D01*
X24000329Y29869117D01*
X23986079Y29888330D01*
X23973782Y29908847D01*
X23963554Y29930471D01*
X23955496Y29952993D01*
X23949684Y29976197D01*
X23946174Y29999858D01*
X23945000Y30023750D01*
X23945000Y30936250D01*
X23946174Y30960142D01*
X23949684Y30983803D01*
X23955496Y31007007D01*
X23963554Y31029529D01*
X23973782Y31051153D01*
X23986079Y31071670D01*
X24000329Y31090883D01*
X24016393Y31108607D01*
X24034117Y31124671D01*
X24053330Y31138921D01*
X24073847Y31151218D01*
X24095471Y31161446D01*
X24117993Y31169504D01*
X24141197Y31175316D01*
X24164858Y31178826D01*
X24188750Y31180000D01*
X24676250Y31180000D01*
X24700142Y31178826D01*
X24700142Y31178826D01*
G37*
D11*
X24432500Y30480000D03*
D10*
G36*
X22825142Y31178826D02*
X22848803Y31175316D01*
X22872007Y31169504D01*
X22894529Y31161446D01*
X22916153Y31151218D01*
X22936670Y31138921D01*
X22955883Y31124671D01*
X22973607Y31108607D01*
X22989671Y31090883D01*
X23003921Y31071670D01*
X23016218Y31051153D01*
X23026446Y31029529D01*
X23034504Y31007007D01*
X23040316Y30983803D01*
X23043826Y30960142D01*
X23045000Y30936250D01*
X23045000Y30023750D01*
X23043826Y29999858D01*
X23040316Y29976197D01*
X23034504Y29952993D01*
X23026446Y29930471D01*
X23016218Y29908847D01*
X23003921Y29888330D01*
X22989671Y29869117D01*
X22973607Y29851393D01*
X22955883Y29835329D01*
X22936670Y29821079D01*
X22916153Y29808782D01*
X22894529Y29798554D01*
X22872007Y29790496D01*
X22848803Y29784684D01*
X22825142Y29781174D01*
X22801250Y29780000D01*
X22313750Y29780000D01*
X22289858Y29781174D01*
X22266197Y29784684D01*
X22242993Y29790496D01*
X22220471Y29798554D01*
X22198847Y29808782D01*
X22178330Y29821079D01*
X22159117Y29835329D01*
X22141393Y29851393D01*
X22125329Y29869117D01*
X22111079Y29888330D01*
X22098782Y29908847D01*
X22088554Y29930471D01*
X22080496Y29952993D01*
X22074684Y29976197D01*
X22071174Y29999858D01*
X22070000Y30023750D01*
X22070000Y30936250D01*
X22071174Y30960142D01*
X22074684Y30983803D01*
X22080496Y31007007D01*
X22088554Y31029529D01*
X22098782Y31051153D01*
X22111079Y31071670D01*
X22125329Y31090883D01*
X22141393Y31108607D01*
X22159117Y31124671D01*
X22178330Y31138921D01*
X22198847Y31151218D01*
X22220471Y31161446D01*
X22242993Y31169504D01*
X22266197Y31175316D01*
X22289858Y31178826D01*
X22313750Y31180000D01*
X22801250Y31180000D01*
X22825142Y31178826D01*
X22825142Y31178826D01*
G37*
D11*
X22557500Y30480000D03*
G04 #@! TD*
D10*
G04 #@! TO.C,R6*
G36*
X12665142Y38798826D02*
X12688803Y38795316D01*
X12712007Y38789504D01*
X12734529Y38781446D01*
X12756153Y38771218D01*
X12776670Y38758921D01*
X12795883Y38744671D01*
X12813607Y38728607D01*
X12829671Y38710883D01*
X12843921Y38691670D01*
X12856218Y38671153D01*
X12866446Y38649529D01*
X12874504Y38627007D01*
X12880316Y38603803D01*
X12883826Y38580142D01*
X12885000Y38556250D01*
X12885000Y37643750D01*
X12883826Y37619858D01*
X12880316Y37596197D01*
X12874504Y37572993D01*
X12866446Y37550471D01*
X12856218Y37528847D01*
X12843921Y37508330D01*
X12829671Y37489117D01*
X12813607Y37471393D01*
X12795883Y37455329D01*
X12776670Y37441079D01*
X12756153Y37428782D01*
X12734529Y37418554D01*
X12712007Y37410496D01*
X12688803Y37404684D01*
X12665142Y37401174D01*
X12641250Y37400000D01*
X12153750Y37400000D01*
X12129858Y37401174D01*
X12106197Y37404684D01*
X12082993Y37410496D01*
X12060471Y37418554D01*
X12038847Y37428782D01*
X12018330Y37441079D01*
X11999117Y37455329D01*
X11981393Y37471393D01*
X11965329Y37489117D01*
X11951079Y37508330D01*
X11938782Y37528847D01*
X11928554Y37550471D01*
X11920496Y37572993D01*
X11914684Y37596197D01*
X11911174Y37619858D01*
X11910000Y37643750D01*
X11910000Y38556250D01*
X11911174Y38580142D01*
X11914684Y38603803D01*
X11920496Y38627007D01*
X11928554Y38649529D01*
X11938782Y38671153D01*
X11951079Y38691670D01*
X11965329Y38710883D01*
X11981393Y38728607D01*
X11999117Y38744671D01*
X12018330Y38758921D01*
X12038847Y38771218D01*
X12060471Y38781446D01*
X12082993Y38789504D01*
X12106197Y38795316D01*
X12129858Y38798826D01*
X12153750Y38800000D01*
X12641250Y38800000D01*
X12665142Y38798826D01*
X12665142Y38798826D01*
G37*
D11*
X12397500Y38100000D03*
D10*
G36*
X14540142Y38798826D02*
X14563803Y38795316D01*
X14587007Y38789504D01*
X14609529Y38781446D01*
X14631153Y38771218D01*
X14651670Y38758921D01*
X14670883Y38744671D01*
X14688607Y38728607D01*
X14704671Y38710883D01*
X14718921Y38691670D01*
X14731218Y38671153D01*
X14741446Y38649529D01*
X14749504Y38627007D01*
X14755316Y38603803D01*
X14758826Y38580142D01*
X14760000Y38556250D01*
X14760000Y37643750D01*
X14758826Y37619858D01*
X14755316Y37596197D01*
X14749504Y37572993D01*
X14741446Y37550471D01*
X14731218Y37528847D01*
X14718921Y37508330D01*
X14704671Y37489117D01*
X14688607Y37471393D01*
X14670883Y37455329D01*
X14651670Y37441079D01*
X14631153Y37428782D01*
X14609529Y37418554D01*
X14587007Y37410496D01*
X14563803Y37404684D01*
X14540142Y37401174D01*
X14516250Y37400000D01*
X14028750Y37400000D01*
X14004858Y37401174D01*
X13981197Y37404684D01*
X13957993Y37410496D01*
X13935471Y37418554D01*
X13913847Y37428782D01*
X13893330Y37441079D01*
X13874117Y37455329D01*
X13856393Y37471393D01*
X13840329Y37489117D01*
X13826079Y37508330D01*
X13813782Y37528847D01*
X13803554Y37550471D01*
X13795496Y37572993D01*
X13789684Y37596197D01*
X13786174Y37619858D01*
X13785000Y37643750D01*
X13785000Y38556250D01*
X13786174Y38580142D01*
X13789684Y38603803D01*
X13795496Y38627007D01*
X13803554Y38649529D01*
X13813782Y38671153D01*
X13826079Y38691670D01*
X13840329Y38710883D01*
X13856393Y38728607D01*
X13874117Y38744671D01*
X13893330Y38758921D01*
X13913847Y38771218D01*
X13935471Y38781446D01*
X13957993Y38789504D01*
X13981197Y38795316D01*
X14004858Y38798826D01*
X14028750Y38800000D01*
X14516250Y38800000D01*
X14540142Y38798826D01*
X14540142Y38798826D01*
G37*
D11*
X14272500Y38100000D03*
G04 #@! TD*
D10*
G04 #@! TO.C,R5*
G36*
X14540142Y42608826D02*
X14563803Y42605316D01*
X14587007Y42599504D01*
X14609529Y42591446D01*
X14631153Y42581218D01*
X14651670Y42568921D01*
X14670883Y42554671D01*
X14688607Y42538607D01*
X14704671Y42520883D01*
X14718921Y42501670D01*
X14731218Y42481153D01*
X14741446Y42459529D01*
X14749504Y42437007D01*
X14755316Y42413803D01*
X14758826Y42390142D01*
X14760000Y42366250D01*
X14760000Y41453750D01*
X14758826Y41429858D01*
X14755316Y41406197D01*
X14749504Y41382993D01*
X14741446Y41360471D01*
X14731218Y41338847D01*
X14718921Y41318330D01*
X14704671Y41299117D01*
X14688607Y41281393D01*
X14670883Y41265329D01*
X14651670Y41251079D01*
X14631153Y41238782D01*
X14609529Y41228554D01*
X14587007Y41220496D01*
X14563803Y41214684D01*
X14540142Y41211174D01*
X14516250Y41210000D01*
X14028750Y41210000D01*
X14004858Y41211174D01*
X13981197Y41214684D01*
X13957993Y41220496D01*
X13935471Y41228554D01*
X13913847Y41238782D01*
X13893330Y41251079D01*
X13874117Y41265329D01*
X13856393Y41281393D01*
X13840329Y41299117D01*
X13826079Y41318330D01*
X13813782Y41338847D01*
X13803554Y41360471D01*
X13795496Y41382993D01*
X13789684Y41406197D01*
X13786174Y41429858D01*
X13785000Y41453750D01*
X13785000Y42366250D01*
X13786174Y42390142D01*
X13789684Y42413803D01*
X13795496Y42437007D01*
X13803554Y42459529D01*
X13813782Y42481153D01*
X13826079Y42501670D01*
X13840329Y42520883D01*
X13856393Y42538607D01*
X13874117Y42554671D01*
X13893330Y42568921D01*
X13913847Y42581218D01*
X13935471Y42591446D01*
X13957993Y42599504D01*
X13981197Y42605316D01*
X14004858Y42608826D01*
X14028750Y42610000D01*
X14516250Y42610000D01*
X14540142Y42608826D01*
X14540142Y42608826D01*
G37*
D11*
X14272500Y41910000D03*
D10*
G36*
X12665142Y42608826D02*
X12688803Y42605316D01*
X12712007Y42599504D01*
X12734529Y42591446D01*
X12756153Y42581218D01*
X12776670Y42568921D01*
X12795883Y42554671D01*
X12813607Y42538607D01*
X12829671Y42520883D01*
X12843921Y42501670D01*
X12856218Y42481153D01*
X12866446Y42459529D01*
X12874504Y42437007D01*
X12880316Y42413803D01*
X12883826Y42390142D01*
X12885000Y42366250D01*
X12885000Y41453750D01*
X12883826Y41429858D01*
X12880316Y41406197D01*
X12874504Y41382993D01*
X12866446Y41360471D01*
X12856218Y41338847D01*
X12843921Y41318330D01*
X12829671Y41299117D01*
X12813607Y41281393D01*
X12795883Y41265329D01*
X12776670Y41251079D01*
X12756153Y41238782D01*
X12734529Y41228554D01*
X12712007Y41220496D01*
X12688803Y41214684D01*
X12665142Y41211174D01*
X12641250Y41210000D01*
X12153750Y41210000D01*
X12129858Y41211174D01*
X12106197Y41214684D01*
X12082993Y41220496D01*
X12060471Y41228554D01*
X12038847Y41238782D01*
X12018330Y41251079D01*
X11999117Y41265329D01*
X11981393Y41281393D01*
X11965329Y41299117D01*
X11951079Y41318330D01*
X11938782Y41338847D01*
X11928554Y41360471D01*
X11920496Y41382993D01*
X11914684Y41406197D01*
X11911174Y41429858D01*
X11910000Y41453750D01*
X11910000Y42366250D01*
X11911174Y42390142D01*
X11914684Y42413803D01*
X11920496Y42437007D01*
X11928554Y42459529D01*
X11938782Y42481153D01*
X11951079Y42501670D01*
X11965329Y42520883D01*
X11981393Y42538607D01*
X11999117Y42554671D01*
X12018330Y42568921D01*
X12038847Y42581218D01*
X12060471Y42591446D01*
X12082993Y42599504D01*
X12106197Y42605316D01*
X12129858Y42608826D01*
X12153750Y42610000D01*
X12641250Y42610000D01*
X12665142Y42608826D01*
X12665142Y42608826D01*
G37*
D11*
X12397500Y41910000D03*
G04 #@! TD*
D10*
G04 #@! TO.C,R3*
G36*
X12665142Y21018826D02*
X12688803Y21015316D01*
X12712007Y21009504D01*
X12734529Y21001446D01*
X12756153Y20991218D01*
X12776670Y20978921D01*
X12795883Y20964671D01*
X12813607Y20948607D01*
X12829671Y20930883D01*
X12843921Y20911670D01*
X12856218Y20891153D01*
X12866446Y20869529D01*
X12874504Y20847007D01*
X12880316Y20823803D01*
X12883826Y20800142D01*
X12885000Y20776250D01*
X12885000Y19863750D01*
X12883826Y19839858D01*
X12880316Y19816197D01*
X12874504Y19792993D01*
X12866446Y19770471D01*
X12856218Y19748847D01*
X12843921Y19728330D01*
X12829671Y19709117D01*
X12813607Y19691393D01*
X12795883Y19675329D01*
X12776670Y19661079D01*
X12756153Y19648782D01*
X12734529Y19638554D01*
X12712007Y19630496D01*
X12688803Y19624684D01*
X12665142Y19621174D01*
X12641250Y19620000D01*
X12153750Y19620000D01*
X12129858Y19621174D01*
X12106197Y19624684D01*
X12082993Y19630496D01*
X12060471Y19638554D01*
X12038847Y19648782D01*
X12018330Y19661079D01*
X11999117Y19675329D01*
X11981393Y19691393D01*
X11965329Y19709117D01*
X11951079Y19728330D01*
X11938782Y19748847D01*
X11928554Y19770471D01*
X11920496Y19792993D01*
X11914684Y19816197D01*
X11911174Y19839858D01*
X11910000Y19863750D01*
X11910000Y20776250D01*
X11911174Y20800142D01*
X11914684Y20823803D01*
X11920496Y20847007D01*
X11928554Y20869529D01*
X11938782Y20891153D01*
X11951079Y20911670D01*
X11965329Y20930883D01*
X11981393Y20948607D01*
X11999117Y20964671D01*
X12018330Y20978921D01*
X12038847Y20991218D01*
X12060471Y21001446D01*
X12082993Y21009504D01*
X12106197Y21015316D01*
X12129858Y21018826D01*
X12153750Y21020000D01*
X12641250Y21020000D01*
X12665142Y21018826D01*
X12665142Y21018826D01*
G37*
D11*
X12397500Y20320000D03*
D10*
G36*
X14540142Y21018826D02*
X14563803Y21015316D01*
X14587007Y21009504D01*
X14609529Y21001446D01*
X14631153Y20991218D01*
X14651670Y20978921D01*
X14670883Y20964671D01*
X14688607Y20948607D01*
X14704671Y20930883D01*
X14718921Y20911670D01*
X14731218Y20891153D01*
X14741446Y20869529D01*
X14749504Y20847007D01*
X14755316Y20823803D01*
X14758826Y20800142D01*
X14760000Y20776250D01*
X14760000Y19863750D01*
X14758826Y19839858D01*
X14755316Y19816197D01*
X14749504Y19792993D01*
X14741446Y19770471D01*
X14731218Y19748847D01*
X14718921Y19728330D01*
X14704671Y19709117D01*
X14688607Y19691393D01*
X14670883Y19675329D01*
X14651670Y19661079D01*
X14631153Y19648782D01*
X14609529Y19638554D01*
X14587007Y19630496D01*
X14563803Y19624684D01*
X14540142Y19621174D01*
X14516250Y19620000D01*
X14028750Y19620000D01*
X14004858Y19621174D01*
X13981197Y19624684D01*
X13957993Y19630496D01*
X13935471Y19638554D01*
X13913847Y19648782D01*
X13893330Y19661079D01*
X13874117Y19675329D01*
X13856393Y19691393D01*
X13840329Y19709117D01*
X13826079Y19728330D01*
X13813782Y19748847D01*
X13803554Y19770471D01*
X13795496Y19792993D01*
X13789684Y19816197D01*
X13786174Y19839858D01*
X13785000Y19863750D01*
X13785000Y20776250D01*
X13786174Y20800142D01*
X13789684Y20823803D01*
X13795496Y20847007D01*
X13803554Y20869529D01*
X13813782Y20891153D01*
X13826079Y20911670D01*
X13840329Y20930883D01*
X13856393Y20948607D01*
X13874117Y20964671D01*
X13893330Y20978921D01*
X13913847Y20991218D01*
X13935471Y21001446D01*
X13957993Y21009504D01*
X13981197Y21015316D01*
X14004858Y21018826D01*
X14028750Y21020000D01*
X14516250Y21020000D01*
X14540142Y21018826D01*
X14540142Y21018826D01*
G37*
D11*
X14272500Y20320000D03*
G04 #@! TD*
D10*
G04 #@! TO.C,R1*
G36*
X12665142Y13398826D02*
X12688803Y13395316D01*
X12712007Y13389504D01*
X12734529Y13381446D01*
X12756153Y13371218D01*
X12776670Y13358921D01*
X12795883Y13344671D01*
X12813607Y13328607D01*
X12829671Y13310883D01*
X12843921Y13291670D01*
X12856218Y13271153D01*
X12866446Y13249529D01*
X12874504Y13227007D01*
X12880316Y13203803D01*
X12883826Y13180142D01*
X12885000Y13156250D01*
X12885000Y12243750D01*
X12883826Y12219858D01*
X12880316Y12196197D01*
X12874504Y12172993D01*
X12866446Y12150471D01*
X12856218Y12128847D01*
X12843921Y12108330D01*
X12829671Y12089117D01*
X12813607Y12071393D01*
X12795883Y12055329D01*
X12776670Y12041079D01*
X12756153Y12028782D01*
X12734529Y12018554D01*
X12712007Y12010496D01*
X12688803Y12004684D01*
X12665142Y12001174D01*
X12641250Y12000000D01*
X12153750Y12000000D01*
X12129858Y12001174D01*
X12106197Y12004684D01*
X12082993Y12010496D01*
X12060471Y12018554D01*
X12038847Y12028782D01*
X12018330Y12041079D01*
X11999117Y12055329D01*
X11981393Y12071393D01*
X11965329Y12089117D01*
X11951079Y12108330D01*
X11938782Y12128847D01*
X11928554Y12150471D01*
X11920496Y12172993D01*
X11914684Y12196197D01*
X11911174Y12219858D01*
X11910000Y12243750D01*
X11910000Y13156250D01*
X11911174Y13180142D01*
X11914684Y13203803D01*
X11920496Y13227007D01*
X11928554Y13249529D01*
X11938782Y13271153D01*
X11951079Y13291670D01*
X11965329Y13310883D01*
X11981393Y13328607D01*
X11999117Y13344671D01*
X12018330Y13358921D01*
X12038847Y13371218D01*
X12060471Y13381446D01*
X12082993Y13389504D01*
X12106197Y13395316D01*
X12129858Y13398826D01*
X12153750Y13400000D01*
X12641250Y13400000D01*
X12665142Y13398826D01*
X12665142Y13398826D01*
G37*
D11*
X12397500Y12700000D03*
D10*
G36*
X14540142Y13398826D02*
X14563803Y13395316D01*
X14587007Y13389504D01*
X14609529Y13381446D01*
X14631153Y13371218D01*
X14651670Y13358921D01*
X14670883Y13344671D01*
X14688607Y13328607D01*
X14704671Y13310883D01*
X14718921Y13291670D01*
X14731218Y13271153D01*
X14741446Y13249529D01*
X14749504Y13227007D01*
X14755316Y13203803D01*
X14758826Y13180142D01*
X14760000Y13156250D01*
X14760000Y12243750D01*
X14758826Y12219858D01*
X14755316Y12196197D01*
X14749504Y12172993D01*
X14741446Y12150471D01*
X14731218Y12128847D01*
X14718921Y12108330D01*
X14704671Y12089117D01*
X14688607Y12071393D01*
X14670883Y12055329D01*
X14651670Y12041079D01*
X14631153Y12028782D01*
X14609529Y12018554D01*
X14587007Y12010496D01*
X14563803Y12004684D01*
X14540142Y12001174D01*
X14516250Y12000000D01*
X14028750Y12000000D01*
X14004858Y12001174D01*
X13981197Y12004684D01*
X13957993Y12010496D01*
X13935471Y12018554D01*
X13913847Y12028782D01*
X13893330Y12041079D01*
X13874117Y12055329D01*
X13856393Y12071393D01*
X13840329Y12089117D01*
X13826079Y12108330D01*
X13813782Y12128847D01*
X13803554Y12150471D01*
X13795496Y12172993D01*
X13789684Y12196197D01*
X13786174Y12219858D01*
X13785000Y12243750D01*
X13785000Y13156250D01*
X13786174Y13180142D01*
X13789684Y13203803D01*
X13795496Y13227007D01*
X13803554Y13249529D01*
X13813782Y13271153D01*
X13826079Y13291670D01*
X13840329Y13310883D01*
X13856393Y13328607D01*
X13874117Y13344671D01*
X13893330Y13358921D01*
X13913847Y13371218D01*
X13935471Y13381446D01*
X13957993Y13389504D01*
X13981197Y13395316D01*
X14004858Y13398826D01*
X14028750Y13400000D01*
X14516250Y13400000D01*
X14540142Y13398826D01*
X14540142Y13398826D01*
G37*
D11*
X14272500Y12700000D03*
G04 #@! TD*
D10*
G04 #@! TO.C,R8*
G36*
X22825142Y9588826D02*
X22848803Y9585316D01*
X22872007Y9579504D01*
X22894529Y9571446D01*
X22916153Y9561218D01*
X22936670Y9548921D01*
X22955883Y9534671D01*
X22973607Y9518607D01*
X22989671Y9500883D01*
X23003921Y9481670D01*
X23016218Y9461153D01*
X23026446Y9439529D01*
X23034504Y9417007D01*
X23040316Y9393803D01*
X23043826Y9370142D01*
X23045000Y9346250D01*
X23045000Y8433750D01*
X23043826Y8409858D01*
X23040316Y8386197D01*
X23034504Y8362993D01*
X23026446Y8340471D01*
X23016218Y8318847D01*
X23003921Y8298330D01*
X22989671Y8279117D01*
X22973607Y8261393D01*
X22955883Y8245329D01*
X22936670Y8231079D01*
X22916153Y8218782D01*
X22894529Y8208554D01*
X22872007Y8200496D01*
X22848803Y8194684D01*
X22825142Y8191174D01*
X22801250Y8190000D01*
X22313750Y8190000D01*
X22289858Y8191174D01*
X22266197Y8194684D01*
X22242993Y8200496D01*
X22220471Y8208554D01*
X22198847Y8218782D01*
X22178330Y8231079D01*
X22159117Y8245329D01*
X22141393Y8261393D01*
X22125329Y8279117D01*
X22111079Y8298330D01*
X22098782Y8318847D01*
X22088554Y8340471D01*
X22080496Y8362993D01*
X22074684Y8386197D01*
X22071174Y8409858D01*
X22070000Y8433750D01*
X22070000Y9346250D01*
X22071174Y9370142D01*
X22074684Y9393803D01*
X22080496Y9417007D01*
X22088554Y9439529D01*
X22098782Y9461153D01*
X22111079Y9481670D01*
X22125329Y9500883D01*
X22141393Y9518607D01*
X22159117Y9534671D01*
X22178330Y9548921D01*
X22198847Y9561218D01*
X22220471Y9571446D01*
X22242993Y9579504D01*
X22266197Y9585316D01*
X22289858Y9588826D01*
X22313750Y9590000D01*
X22801250Y9590000D01*
X22825142Y9588826D01*
X22825142Y9588826D01*
G37*
D11*
X22557500Y8890000D03*
D10*
G36*
X24700142Y9588826D02*
X24723803Y9585316D01*
X24747007Y9579504D01*
X24769529Y9571446D01*
X24791153Y9561218D01*
X24811670Y9548921D01*
X24830883Y9534671D01*
X24848607Y9518607D01*
X24864671Y9500883D01*
X24878921Y9481670D01*
X24891218Y9461153D01*
X24901446Y9439529D01*
X24909504Y9417007D01*
X24915316Y9393803D01*
X24918826Y9370142D01*
X24920000Y9346250D01*
X24920000Y8433750D01*
X24918826Y8409858D01*
X24915316Y8386197D01*
X24909504Y8362993D01*
X24901446Y8340471D01*
X24891218Y8318847D01*
X24878921Y8298330D01*
X24864671Y8279117D01*
X24848607Y8261393D01*
X24830883Y8245329D01*
X24811670Y8231079D01*
X24791153Y8218782D01*
X24769529Y8208554D01*
X24747007Y8200496D01*
X24723803Y8194684D01*
X24700142Y8191174D01*
X24676250Y8190000D01*
X24188750Y8190000D01*
X24164858Y8191174D01*
X24141197Y8194684D01*
X24117993Y8200496D01*
X24095471Y8208554D01*
X24073847Y8218782D01*
X24053330Y8231079D01*
X24034117Y8245329D01*
X24016393Y8261393D01*
X24000329Y8279117D01*
X23986079Y8298330D01*
X23973782Y8318847D01*
X23963554Y8340471D01*
X23955496Y8362993D01*
X23949684Y8386197D01*
X23946174Y8409858D01*
X23945000Y8433750D01*
X23945000Y9346250D01*
X23946174Y9370142D01*
X23949684Y9393803D01*
X23955496Y9417007D01*
X23963554Y9439529D01*
X23973782Y9461153D01*
X23986079Y9481670D01*
X24000329Y9500883D01*
X24016393Y9518607D01*
X24034117Y9534671D01*
X24053330Y9548921D01*
X24073847Y9561218D01*
X24095471Y9571446D01*
X24117993Y9579504D01*
X24141197Y9585316D01*
X24164858Y9588826D01*
X24188750Y9590000D01*
X24676250Y9590000D01*
X24700142Y9588826D01*
X24700142Y9588826D01*
G37*
D11*
X24432500Y8890000D03*
G04 #@! TD*
D10*
G04 #@! TO.C,R4*
G36*
X14540142Y17208826D02*
X14563803Y17205316D01*
X14587007Y17199504D01*
X14609529Y17191446D01*
X14631153Y17181218D01*
X14651670Y17168921D01*
X14670883Y17154671D01*
X14688607Y17138607D01*
X14704671Y17120883D01*
X14718921Y17101670D01*
X14731218Y17081153D01*
X14741446Y17059529D01*
X14749504Y17037007D01*
X14755316Y17013803D01*
X14758826Y16990142D01*
X14760000Y16966250D01*
X14760000Y16053750D01*
X14758826Y16029858D01*
X14755316Y16006197D01*
X14749504Y15982993D01*
X14741446Y15960471D01*
X14731218Y15938847D01*
X14718921Y15918330D01*
X14704671Y15899117D01*
X14688607Y15881393D01*
X14670883Y15865329D01*
X14651670Y15851079D01*
X14631153Y15838782D01*
X14609529Y15828554D01*
X14587007Y15820496D01*
X14563803Y15814684D01*
X14540142Y15811174D01*
X14516250Y15810000D01*
X14028750Y15810000D01*
X14004858Y15811174D01*
X13981197Y15814684D01*
X13957993Y15820496D01*
X13935471Y15828554D01*
X13913847Y15838782D01*
X13893330Y15851079D01*
X13874117Y15865329D01*
X13856393Y15881393D01*
X13840329Y15899117D01*
X13826079Y15918330D01*
X13813782Y15938847D01*
X13803554Y15960471D01*
X13795496Y15982993D01*
X13789684Y16006197D01*
X13786174Y16029858D01*
X13785000Y16053750D01*
X13785000Y16966250D01*
X13786174Y16990142D01*
X13789684Y17013803D01*
X13795496Y17037007D01*
X13803554Y17059529D01*
X13813782Y17081153D01*
X13826079Y17101670D01*
X13840329Y17120883D01*
X13856393Y17138607D01*
X13874117Y17154671D01*
X13893330Y17168921D01*
X13913847Y17181218D01*
X13935471Y17191446D01*
X13957993Y17199504D01*
X13981197Y17205316D01*
X14004858Y17208826D01*
X14028750Y17210000D01*
X14516250Y17210000D01*
X14540142Y17208826D01*
X14540142Y17208826D01*
G37*
D11*
X14272500Y16510000D03*
D10*
G36*
X12665142Y17208826D02*
X12688803Y17205316D01*
X12712007Y17199504D01*
X12734529Y17191446D01*
X12756153Y17181218D01*
X12776670Y17168921D01*
X12795883Y17154671D01*
X12813607Y17138607D01*
X12829671Y17120883D01*
X12843921Y17101670D01*
X12856218Y17081153D01*
X12866446Y17059529D01*
X12874504Y17037007D01*
X12880316Y17013803D01*
X12883826Y16990142D01*
X12885000Y16966250D01*
X12885000Y16053750D01*
X12883826Y16029858D01*
X12880316Y16006197D01*
X12874504Y15982993D01*
X12866446Y15960471D01*
X12856218Y15938847D01*
X12843921Y15918330D01*
X12829671Y15899117D01*
X12813607Y15881393D01*
X12795883Y15865329D01*
X12776670Y15851079D01*
X12756153Y15838782D01*
X12734529Y15828554D01*
X12712007Y15820496D01*
X12688803Y15814684D01*
X12665142Y15811174D01*
X12641250Y15810000D01*
X12153750Y15810000D01*
X12129858Y15811174D01*
X12106197Y15814684D01*
X12082993Y15820496D01*
X12060471Y15828554D01*
X12038847Y15838782D01*
X12018330Y15851079D01*
X11999117Y15865329D01*
X11981393Y15881393D01*
X11965329Y15899117D01*
X11951079Y15918330D01*
X11938782Y15938847D01*
X11928554Y15960471D01*
X11920496Y15982993D01*
X11914684Y16006197D01*
X11911174Y16029858D01*
X11910000Y16053750D01*
X11910000Y16966250D01*
X11911174Y16990142D01*
X11914684Y17013803D01*
X11920496Y17037007D01*
X11928554Y17059529D01*
X11938782Y17081153D01*
X11951079Y17101670D01*
X11965329Y17120883D01*
X11981393Y17138607D01*
X11999117Y17154671D01*
X12018330Y17168921D01*
X12038847Y17181218D01*
X12060471Y17191446D01*
X12082993Y17199504D01*
X12106197Y17205316D01*
X12129858Y17208826D01*
X12153750Y17210000D01*
X12641250Y17210000D01*
X12665142Y17208826D01*
X12665142Y17208826D01*
G37*
D11*
X12397500Y16510000D03*
G04 #@! TD*
D15*
G04 #@! TO.C,J1*
X6350000Y18090000D03*
D16*
X6350000Y21590000D03*
G04 #@! TD*
G04 #@! TO.C,J2*
X6350000Y43180000D03*
D15*
X6350000Y39680000D03*
G04 #@! TD*
G04 #@! TO.C,J3*
X6350000Y28885000D03*
D16*
X6350000Y32385000D03*
G04 #@! TD*
G04 #@! TO.C,J4*
X6350000Y10795000D03*
D15*
X6350000Y7295000D03*
G04 #@! TD*
G04 #@! TO.C,J5*
X62865000Y28265000D03*
D16*
X62865000Y24765000D03*
G04 #@! TD*
G04 #@! TO.C,J6*
X62865000Y14605000D03*
D15*
X62865000Y18105000D03*
G04 #@! TD*
D17*
G04 #@! TO.C,P1*
X27940000Y2540000D03*
X30480000Y2540000D03*
X33020000Y2540000D03*
X35560000Y2540000D03*
X38100000Y2540000D03*
X40640000Y2540000D03*
X43180000Y2540000D03*
X45720000Y2540000D03*
G04 #@! TD*
G04 #@! TO.C,P2*
X50800000Y2540000D03*
X53340000Y2540000D03*
X55880000Y2540000D03*
X58420000Y2540000D03*
X60960000Y2540000D03*
X63500000Y2540000D03*
G04 #@! TD*
G04 #@! TO.C,P3*
X18796000Y50800000D03*
X21336000Y50800000D03*
X23876000Y50800000D03*
X26416000Y50800000D03*
X28956000Y50800000D03*
X31496000Y50800000D03*
X34036000Y50800000D03*
X36576000Y50800000D03*
X39116000Y50800000D03*
X41656000Y50800000D03*
G04 #@! TD*
G04 #@! TO.C,P4*
X45720000Y50800000D03*
X48260000Y50800000D03*
X50800000Y50800000D03*
X53340000Y50800000D03*
X55880000Y50800000D03*
X58420000Y50800000D03*
X60960000Y50800000D03*
X63500000Y50800000D03*
G04 #@! TD*
D18*
G04 #@! TO.C,P5*
X13970000Y2540000D03*
G04 #@! TD*
G04 #@! TO.C,P6*
X66040000Y7620000D03*
G04 #@! TD*
G04 #@! TO.C,P7*
X15240000Y50800000D03*
G04 #@! TD*
G04 #@! TO.C,P8*
X66040000Y35560000D03*
G04 #@! TD*
M02*
